G04 #@! TF.GenerationSoftware,KiCad,Pcbnew,9.0.1*
G04 #@! TF.CreationDate,2025-06-30T22:23:46+05:30*
G04 #@! TF.ProjectId,solder,736f6c64-6572-42e6-9b69-6361645f7063,rev?*
G04 #@! TF.SameCoordinates,Original*
G04 #@! TF.FileFunction,Legend,Top*
G04 #@! TF.FilePolarity,Positive*
%FSLAX46Y46*%
G04 Gerber Fmt 4.6, Leading zero omitted, Abs format (unit mm)*
G04 Created by KiCad (PCBNEW 9.0.1) date 2025-06-30 22:23:46*
%MOMM*%
%LPD*%
G01*
G04 APERTURE LIST*
G04 Aperture macros list*
%AMRoundRect*
0 Rectangle with rounded corners*
0 $1 Rounding radius*
0 $2 $3 $4 $5 $6 $7 $8 $9 X,Y pos of 4 corners*
0 Add a 4 corners polygon primitive as box body*
4,1,4,$2,$3,$4,$5,$6,$7,$8,$9,$2,$3,0*
0 Add four circle primitives for the rounded corners*
1,1,$1+$1,$2,$3*
1,1,$1+$1,$4,$5*
1,1,$1+$1,$6,$7*
1,1,$1+$1,$8,$9*
0 Add four rect primitives between the rounded corners*
20,1,$1+$1,$2,$3,$4,$5,0*
20,1,$1+$1,$4,$5,$6,$7,0*
20,1,$1+$1,$6,$7,$8,$9,0*
20,1,$1+$1,$8,$9,$2,$3,0*%
G04 Aperture macros list end*
%ADD10C,0.150000*%
%ADD11C,0.000000*%
%ADD12C,0.120000*%
%ADD13C,1.500000*%
%ADD14C,1.600000*%
%ADD15O,1.600000X1.600000*%
%ADD16R,1.100000X1.800000*%
%ADD17RoundRect,0.275000X0.275000X0.625000X-0.275000X0.625000X-0.275000X-0.625000X0.275000X-0.625000X0*%
%ADD18R,1.800000X1.800000*%
%ADD19C,1.800000*%
%ADD20R,1.270000X5.080000*%
%ADD21C,17.800000*%
G04 APERTURE END LIST*
D10*
X138883333Y-76304819D02*
X138550000Y-75828628D01*
X138311905Y-76304819D02*
X138311905Y-75304819D01*
X138311905Y-75304819D02*
X138692857Y-75304819D01*
X138692857Y-75304819D02*
X138788095Y-75352438D01*
X138788095Y-75352438D02*
X138835714Y-75400057D01*
X138835714Y-75400057D02*
X138883333Y-75495295D01*
X138883333Y-75495295D02*
X138883333Y-75638152D01*
X138883333Y-75638152D02*
X138835714Y-75733390D01*
X138835714Y-75733390D02*
X138788095Y-75781009D01*
X138788095Y-75781009D02*
X138692857Y-75828628D01*
X138692857Y-75828628D02*
X138311905Y-75828628D01*
X139216667Y-75304819D02*
X139835714Y-75304819D01*
X139835714Y-75304819D02*
X139502381Y-75685771D01*
X139502381Y-75685771D02*
X139645238Y-75685771D01*
X139645238Y-75685771D02*
X139740476Y-75733390D01*
X139740476Y-75733390D02*
X139788095Y-75781009D01*
X139788095Y-75781009D02*
X139835714Y-75876247D01*
X139835714Y-75876247D02*
X139835714Y-76114342D01*
X139835714Y-76114342D02*
X139788095Y-76209580D01*
X139788095Y-76209580D02*
X139740476Y-76257200D01*
X139740476Y-76257200D02*
X139645238Y-76304819D01*
X139645238Y-76304819D02*
X139359524Y-76304819D01*
X139359524Y-76304819D02*
X139264286Y-76257200D01*
X139264286Y-76257200D02*
X139216667Y-76209580D01*
X122663333Y-80034819D02*
X122330000Y-79558628D01*
X122091905Y-80034819D02*
X122091905Y-79034819D01*
X122091905Y-79034819D02*
X122472857Y-79034819D01*
X122472857Y-79034819D02*
X122568095Y-79082438D01*
X122568095Y-79082438D02*
X122615714Y-79130057D01*
X122615714Y-79130057D02*
X122663333Y-79225295D01*
X122663333Y-79225295D02*
X122663333Y-79368152D01*
X122663333Y-79368152D02*
X122615714Y-79463390D01*
X122615714Y-79463390D02*
X122568095Y-79511009D01*
X122568095Y-79511009D02*
X122472857Y-79558628D01*
X122472857Y-79558628D02*
X122091905Y-79558628D01*
X123044286Y-79130057D02*
X123091905Y-79082438D01*
X123091905Y-79082438D02*
X123187143Y-79034819D01*
X123187143Y-79034819D02*
X123425238Y-79034819D01*
X123425238Y-79034819D02*
X123520476Y-79082438D01*
X123520476Y-79082438D02*
X123568095Y-79130057D01*
X123568095Y-79130057D02*
X123615714Y-79225295D01*
X123615714Y-79225295D02*
X123615714Y-79320533D01*
X123615714Y-79320533D02*
X123568095Y-79463390D01*
X123568095Y-79463390D02*
X122996667Y-80034819D01*
X122996667Y-80034819D02*
X123615714Y-80034819D01*
X122663333Y-75984819D02*
X122330000Y-75508628D01*
X122091905Y-75984819D02*
X122091905Y-74984819D01*
X122091905Y-74984819D02*
X122472857Y-74984819D01*
X122472857Y-74984819D02*
X122568095Y-75032438D01*
X122568095Y-75032438D02*
X122615714Y-75080057D01*
X122615714Y-75080057D02*
X122663333Y-75175295D01*
X122663333Y-75175295D02*
X122663333Y-75318152D01*
X122663333Y-75318152D02*
X122615714Y-75413390D01*
X122615714Y-75413390D02*
X122568095Y-75461009D01*
X122568095Y-75461009D02*
X122472857Y-75508628D01*
X122472857Y-75508628D02*
X122091905Y-75508628D01*
X123615714Y-75984819D02*
X123044286Y-75984819D01*
X123330000Y-75984819D02*
X123330000Y-74984819D01*
X123330000Y-74984819D02*
X123234762Y-75127676D01*
X123234762Y-75127676D02*
X123139524Y-75222914D01*
X123139524Y-75222914D02*
X123044286Y-75270533D01*
X148904761Y-68080057D02*
X148809523Y-68032438D01*
X148809523Y-68032438D02*
X148714285Y-67937200D01*
X148714285Y-67937200D02*
X148571428Y-67794342D01*
X148571428Y-67794342D02*
X148476190Y-67746723D01*
X148476190Y-67746723D02*
X148380952Y-67746723D01*
X148428571Y-67984819D02*
X148333333Y-67937200D01*
X148333333Y-67937200D02*
X148238095Y-67841961D01*
X148238095Y-67841961D02*
X148190476Y-67651485D01*
X148190476Y-67651485D02*
X148190476Y-67318152D01*
X148190476Y-67318152D02*
X148238095Y-67127676D01*
X148238095Y-67127676D02*
X148333333Y-67032438D01*
X148333333Y-67032438D02*
X148428571Y-66984819D01*
X148428571Y-66984819D02*
X148619047Y-66984819D01*
X148619047Y-66984819D02*
X148714285Y-67032438D01*
X148714285Y-67032438D02*
X148809523Y-67127676D01*
X148809523Y-67127676D02*
X148857142Y-67318152D01*
X148857142Y-67318152D02*
X148857142Y-67651485D01*
X148857142Y-67651485D02*
X148809523Y-67841961D01*
X148809523Y-67841961D02*
X148714285Y-67937200D01*
X148714285Y-67937200D02*
X148619047Y-67984819D01*
X148619047Y-67984819D02*
X148428571Y-67984819D01*
X149809523Y-67984819D02*
X149238095Y-67984819D01*
X149523809Y-67984819D02*
X149523809Y-66984819D01*
X149523809Y-66984819D02*
X149428571Y-67127676D01*
X149428571Y-67127676D02*
X149333333Y-67222914D01*
X149333333Y-67222914D02*
X149238095Y-67270533D01*
X131211905Y-76104819D02*
X131211905Y-75104819D01*
X131211905Y-75104819D02*
X131450000Y-75104819D01*
X131450000Y-75104819D02*
X131592857Y-75152438D01*
X131592857Y-75152438D02*
X131688095Y-75247676D01*
X131688095Y-75247676D02*
X131735714Y-75342914D01*
X131735714Y-75342914D02*
X131783333Y-75533390D01*
X131783333Y-75533390D02*
X131783333Y-75676247D01*
X131783333Y-75676247D02*
X131735714Y-75866723D01*
X131735714Y-75866723D02*
X131688095Y-75961961D01*
X131688095Y-75961961D02*
X131592857Y-76057200D01*
X131592857Y-76057200D02*
X131450000Y-76104819D01*
X131450000Y-76104819D02*
X131211905Y-76104819D01*
X132735714Y-76104819D02*
X132164286Y-76104819D01*
X132450000Y-76104819D02*
X132450000Y-75104819D01*
X132450000Y-75104819D02*
X132354762Y-75247676D01*
X132354762Y-75247676D02*
X132259524Y-75342914D01*
X132259524Y-75342914D02*
X132164286Y-75390533D01*
X129054285Y-53289084D02*
X129197142Y-53336703D01*
X129197142Y-53336703D02*
X129244761Y-53384322D01*
X129244761Y-53384322D02*
X129292380Y-53479560D01*
X129292380Y-53479560D02*
X129292380Y-53622417D01*
X129292380Y-53622417D02*
X129244761Y-53717655D01*
X129244761Y-53717655D02*
X129197142Y-53765275D01*
X129197142Y-53765275D02*
X129101904Y-53812894D01*
X129101904Y-53812894D02*
X128720952Y-53812894D01*
X128720952Y-53812894D02*
X128720952Y-52812894D01*
X128720952Y-52812894D02*
X129054285Y-52812894D01*
X129054285Y-52812894D02*
X129149523Y-52860513D01*
X129149523Y-52860513D02*
X129197142Y-52908132D01*
X129197142Y-52908132D02*
X129244761Y-53003370D01*
X129244761Y-53003370D02*
X129244761Y-53098608D01*
X129244761Y-53098608D02*
X129197142Y-53193846D01*
X129197142Y-53193846D02*
X129149523Y-53241465D01*
X129149523Y-53241465D02*
X129054285Y-53289084D01*
X129054285Y-53289084D02*
X128720952Y-53289084D01*
X129578095Y-52812894D02*
X130149523Y-52812894D01*
X129863809Y-53812894D02*
X129863809Y-52812894D01*
X131006666Y-53812894D02*
X130435238Y-53812894D01*
X130720952Y-53812894D02*
X130720952Y-52812894D01*
X130720952Y-52812894D02*
X130625714Y-52955751D01*
X130625714Y-52955751D02*
X130530476Y-53050989D01*
X130530476Y-53050989D02*
X130435238Y-53098608D01*
D11*
G04 #@! TO.C,G\u002A\u002A\u002A*
G36*
X132399529Y-87045597D02*
G01*
X132423823Y-87074272D01*
X132464915Y-87123409D01*
X132518416Y-87187733D01*
X132579939Y-87261971D01*
X132633112Y-87326324D01*
X133036816Y-87794427D01*
X133467954Y-88254357D01*
X133920713Y-88700346D01*
X134389281Y-89126625D01*
X134779166Y-89455744D01*
X134851577Y-89515175D01*
X134914018Y-89567220D01*
X134962281Y-89608308D01*
X134992160Y-89634867D01*
X135000000Y-89643239D01*
X134998401Y-89661388D01*
X134993950Y-89707491D01*
X134987159Y-89776339D01*
X134978544Y-89862723D01*
X134968617Y-89961434D01*
X134967629Y-89971213D01*
X134946626Y-90188553D01*
X134929773Y-90386438D01*
X134916682Y-90572920D01*
X134906966Y-90756048D01*
X134900235Y-90943871D01*
X134896102Y-91144441D01*
X134894179Y-91365806D01*
X134893923Y-91500000D01*
X134894791Y-91736311D01*
X134897655Y-91947378D01*
X134902902Y-92141250D01*
X134910920Y-92325978D01*
X134922099Y-92509611D01*
X134936824Y-92700199D01*
X134955486Y-92905793D01*
X134967629Y-93028786D01*
X134977654Y-93128392D01*
X134986415Y-93216164D01*
X134993400Y-93286893D01*
X134998095Y-93335368D01*
X134999985Y-93356382D01*
X135000000Y-93356760D01*
X134987733Y-93369223D01*
X134953739Y-93399054D01*
X134902223Y-93442682D01*
X134837394Y-93496533D01*
X134779166Y-93544255D01*
X134301679Y-93950784D01*
X133832734Y-94384366D01*
X133378529Y-94838805D01*
X132945262Y-95307902D01*
X132544255Y-95779166D01*
X132484824Y-95851577D01*
X132432779Y-95914018D01*
X132391691Y-95962281D01*
X132365132Y-95992160D01*
X132356760Y-96000000D01*
X132338611Y-95998401D01*
X132292508Y-95993950D01*
X132223660Y-95987159D01*
X132137276Y-95978544D01*
X132038565Y-95968617D01*
X132028786Y-95967629D01*
X131811446Y-95946626D01*
X131613561Y-95929773D01*
X131427079Y-95916682D01*
X131243951Y-95906966D01*
X131056128Y-95900235D01*
X130855558Y-95896102D01*
X130634193Y-95894179D01*
X130500000Y-95893923D01*
X130263688Y-95894791D01*
X130052621Y-95897655D01*
X129858749Y-95902902D01*
X129674021Y-95910920D01*
X129490388Y-95922099D01*
X129299800Y-95936824D01*
X129094206Y-95955486D01*
X128971213Y-95967629D01*
X128871576Y-95977655D01*
X128783744Y-95986417D01*
X128712935Y-95993403D01*
X128664365Y-95998097D01*
X128643251Y-95999985D01*
X128642866Y-96000000D01*
X128630015Y-95987795D01*
X128600544Y-95954439D01*
X128558646Y-95904821D01*
X128508510Y-95843827D01*
X128500891Y-95834433D01*
X128033802Y-95283285D01*
X127546031Y-94758014D01*
X127036504Y-94257542D01*
X126504148Y-93780792D01*
X126219038Y-93542790D01*
X125996410Y-93361353D01*
X125998192Y-93347653D01*
X126189464Y-93347653D01*
X126195419Y-93361262D01*
X126224435Y-93392696D01*
X126273460Y-93439063D01*
X126339444Y-93497471D01*
X126414464Y-93560982D01*
X126890043Y-93971305D01*
X127337241Y-94388851D01*
X127760929Y-94818490D01*
X128165975Y-95265095D01*
X128430575Y-95577720D01*
X128493069Y-95652434D01*
X128548915Y-95717010D01*
X128594512Y-95767460D01*
X128626259Y-95799796D01*
X128640389Y-95810091D01*
X128648499Y-95794531D01*
X128668577Y-95749933D01*
X128699876Y-95678075D01*
X128741648Y-95580730D01*
X128793146Y-95459676D01*
X128853622Y-95316689D01*
X128922331Y-95153543D01*
X128998524Y-94972015D01*
X129081455Y-94773880D01*
X129170376Y-94560915D01*
X129264540Y-94334895D01*
X129363199Y-94097596D01*
X129465608Y-93850794D01*
X129520580Y-93718116D01*
X129624463Y-93467070D01*
X129724667Y-93224532D01*
X129820466Y-92992281D01*
X129911133Y-92772094D01*
X129995941Y-92565750D01*
X130074163Y-92375027D01*
X130145072Y-92201703D01*
X130207941Y-92047556D01*
X130262044Y-91914364D01*
X130306654Y-91803905D01*
X130341043Y-91717957D01*
X130364484Y-91658298D01*
X130376252Y-91626707D01*
X130377430Y-91622251D01*
X130622193Y-91622251D01*
X130627753Y-91637956D01*
X130645174Y-91682296D01*
X130673564Y-91753109D01*
X130712033Y-91848231D01*
X130759689Y-91965501D01*
X130815643Y-92102754D01*
X130879003Y-92257829D01*
X130948878Y-92428562D01*
X131024378Y-92612791D01*
X131104612Y-92808353D01*
X131188689Y-93013084D01*
X131275718Y-93224823D01*
X131364809Y-93441407D01*
X131455071Y-93660672D01*
X131545613Y-93880456D01*
X131635544Y-94098595D01*
X131723974Y-94312928D01*
X131810011Y-94521291D01*
X131892766Y-94721522D01*
X131971347Y-94911458D01*
X132044863Y-95088935D01*
X132112424Y-95251791D01*
X132173138Y-95397864D01*
X132226116Y-95524990D01*
X132270466Y-95631007D01*
X132305298Y-95713752D01*
X132329720Y-95771062D01*
X132342843Y-95800774D01*
X132344549Y-95804166D01*
X132362535Y-95815550D01*
X132363483Y-95815496D01*
X132377223Y-95802820D01*
X132408328Y-95768335D01*
X132453234Y-95716173D01*
X132508377Y-95650470D01*
X132564524Y-95582306D01*
X132910973Y-95175881D01*
X133283789Y-94771592D01*
X133676314Y-94376094D01*
X134081890Y-93996041D01*
X134493859Y-93638087D01*
X134586240Y-93561693D01*
X134659635Y-93500560D01*
X134722759Y-93446048D01*
X134771545Y-93401829D01*
X134801928Y-93371573D01*
X134810224Y-93359452D01*
X134794695Y-93351333D01*
X134750528Y-93331458D01*
X134679884Y-93300722D01*
X134584921Y-93260020D01*
X134467800Y-93210249D01*
X134330681Y-93152305D01*
X134175724Y-93087084D01*
X134005090Y-93015482D01*
X133820937Y-92938394D01*
X133625427Y-92856717D01*
X133420719Y-92771347D01*
X133208973Y-92683180D01*
X132992349Y-92593111D01*
X132773008Y-92502037D01*
X132553109Y-92410853D01*
X132334812Y-92320457D01*
X132120278Y-92231742D01*
X131911666Y-92145607D01*
X131711136Y-92062946D01*
X131520849Y-91984655D01*
X131342964Y-91911631D01*
X131179642Y-91844770D01*
X131033042Y-91784967D01*
X130905325Y-91733118D01*
X130798650Y-91690120D01*
X130715178Y-91656869D01*
X130657068Y-91634260D01*
X130626481Y-91623189D01*
X130622193Y-91622251D01*
X130377430Y-91622251D01*
X130377509Y-91621953D01*
X130361783Y-91627495D01*
X130317422Y-91644905D01*
X130246589Y-91673291D01*
X130151444Y-91711764D01*
X130034147Y-91759434D01*
X129896860Y-91815408D01*
X129741744Y-91878799D01*
X129570960Y-91948713D01*
X129386670Y-92024263D01*
X129191033Y-92104556D01*
X128986211Y-92188702D01*
X128774365Y-92275811D01*
X128557657Y-92364993D01*
X128338246Y-92455357D01*
X128118295Y-92546012D01*
X127899964Y-92636068D01*
X127685414Y-92724635D01*
X127476806Y-92810822D01*
X127276301Y-92893739D01*
X127086061Y-92972495D01*
X126908246Y-93046200D01*
X126745018Y-93113964D01*
X126598536Y-93174895D01*
X126470963Y-93228103D01*
X126364460Y-93272698D01*
X126281187Y-93307790D01*
X126223305Y-93332488D01*
X126192976Y-93345902D01*
X126189464Y-93347653D01*
X125998192Y-93347653D01*
X126006361Y-93284843D01*
X126023751Y-93135358D01*
X126040805Y-92958919D01*
X126057088Y-92761906D01*
X126072162Y-92550696D01*
X126085593Y-92331669D01*
X126096944Y-92111204D01*
X126105778Y-91895680D01*
X126109590Y-91775000D01*
X126112458Y-91565136D01*
X126110509Y-91330100D01*
X126104114Y-91077646D01*
X126093646Y-90815531D01*
X126079476Y-90551509D01*
X126061975Y-90293334D01*
X126041515Y-90048762D01*
X126018469Y-89825547D01*
X126014555Y-89792234D01*
X125996806Y-89643999D01*
X126164767Y-89643999D01*
X128261550Y-90513069D01*
X128513255Y-90617358D01*
X128756537Y-90718081D01*
X128989614Y-90814504D01*
X129210702Y-90905894D01*
X129418022Y-90991517D01*
X129609790Y-91070638D01*
X129784224Y-91142524D01*
X129939544Y-91206440D01*
X130073966Y-91261652D01*
X130185710Y-91307427D01*
X130272993Y-91343029D01*
X130334033Y-91367726D01*
X130367048Y-91380783D01*
X130372616Y-91382737D01*
X130377393Y-91374645D01*
X130616666Y-91374645D01*
X130629617Y-91379590D01*
X130645833Y-91376277D01*
X130664508Y-91368876D01*
X130712162Y-91349460D01*
X130786983Y-91318775D01*
X130887156Y-91277571D01*
X131010868Y-91226597D01*
X131156308Y-91166601D01*
X131321660Y-91098333D01*
X131505113Y-91022539D01*
X131704853Y-90939970D01*
X131919067Y-90851375D01*
X132145941Y-90757501D01*
X132383664Y-90659097D01*
X132630420Y-90556913D01*
X132740759Y-90511208D01*
X132990450Y-90407670D01*
X133231560Y-90307494D01*
X133462304Y-90211431D01*
X133680897Y-90120233D01*
X133885552Y-90034652D01*
X134074485Y-89955437D01*
X134245911Y-89883342D01*
X134398044Y-89819117D01*
X134529099Y-89763515D01*
X134637290Y-89717285D01*
X134720832Y-89681180D01*
X134777940Y-89655952D01*
X134806828Y-89642351D01*
X134810147Y-89640221D01*
X134799044Y-89625298D01*
X134765985Y-89593047D01*
X134714957Y-89547064D01*
X134649949Y-89490947D01*
X134577720Y-89430575D01*
X134116953Y-89035334D01*
X133676430Y-88624731D01*
X133251280Y-88193894D01*
X132836630Y-87737955D01*
X132560982Y-87414464D01*
X132493872Y-87335285D01*
X132436074Y-87270186D01*
X132390479Y-87222218D01*
X132359982Y-87194433D01*
X132347654Y-87189464D01*
X132339585Y-87207780D01*
X132319775Y-87254570D01*
X132289120Y-87327671D01*
X132248514Y-87424915D01*
X132198854Y-87544139D01*
X132141035Y-87683176D01*
X132075953Y-87839862D01*
X132004503Y-88012030D01*
X131927582Y-88197516D01*
X131846084Y-88394154D01*
X131760905Y-88599778D01*
X131672940Y-88812224D01*
X131583087Y-89029326D01*
X131492239Y-89248918D01*
X131401292Y-89468836D01*
X131311143Y-89686913D01*
X131222687Y-89900985D01*
X131136819Y-90108885D01*
X131054435Y-90308450D01*
X130976430Y-90497512D01*
X130903701Y-90673908D01*
X130837142Y-90835471D01*
X130777650Y-90980036D01*
X130726120Y-91105438D01*
X130683447Y-91209512D01*
X130650527Y-91290091D01*
X130628256Y-91345011D01*
X130617530Y-91372107D01*
X130616666Y-91374645D01*
X130377393Y-91374645D01*
X130379771Y-91370617D01*
X130376290Y-91354166D01*
X130368741Y-91335499D01*
X130349188Y-91287841D01*
X130318377Y-91212999D01*
X130277056Y-91112780D01*
X130225970Y-90988991D01*
X130165867Y-90843441D01*
X130097493Y-90677935D01*
X130021594Y-90494281D01*
X129938919Y-90294287D01*
X129850212Y-90079758D01*
X129756221Y-89852504D01*
X129657693Y-89614330D01*
X129555373Y-89367044D01*
X129504826Y-89244901D01*
X128643971Y-87164802D01*
X128601152Y-87219790D01*
X128506916Y-87337300D01*
X128393340Y-87473133D01*
X128264903Y-87622296D01*
X128126083Y-87779792D01*
X127981360Y-87940627D01*
X127835211Y-88099805D01*
X127692115Y-88252332D01*
X127556552Y-88393212D01*
X127475385Y-88475385D01*
X127344632Y-88603742D01*
X127199018Y-88742512D01*
X127043537Y-88887218D01*
X126883187Y-89033380D01*
X126722961Y-89176519D01*
X126567855Y-89312156D01*
X126422866Y-89435812D01*
X126292987Y-89543009D01*
X126219772Y-89601166D01*
X126164767Y-89643999D01*
X125996806Y-89643999D01*
X125996663Y-89642801D01*
X126045150Y-89600567D01*
X126074023Y-89575989D01*
X126123217Y-89534723D01*
X126187325Y-89481277D01*
X126260945Y-89420159D01*
X126317652Y-89373236D01*
X126493614Y-89226346D01*
X126653316Y-89089511D01*
X126803584Y-88956513D01*
X126951244Y-88821138D01*
X127103121Y-88677167D01*
X127266040Y-88518386D01*
X127376673Y-88408696D01*
X127560700Y-88223410D01*
X127725506Y-88053172D01*
X127877174Y-87891331D01*
X128021787Y-87731237D01*
X128165426Y-87566237D01*
X128314175Y-87389682D01*
X128366874Y-87325986D01*
X128431661Y-87247514D01*
X128492020Y-87174684D01*
X128543570Y-87112763D01*
X128581930Y-87067013D01*
X128600470Y-87045259D01*
X128642608Y-86996879D01*
X128800470Y-87015390D01*
X129015918Y-87037973D01*
X129259499Y-87058652D01*
X129526047Y-87077060D01*
X129810396Y-87092828D01*
X130020833Y-87102243D01*
X130333333Y-87110013D01*
X130668609Y-87109487D01*
X131017250Y-87101042D01*
X131369845Y-87085051D01*
X131716985Y-87061890D01*
X132049259Y-87031934D01*
X132199529Y-87015390D01*
X132357391Y-86996879D01*
X132399529Y-87045597D01*
G37*
D12*
G04 #@! TO.C,R3*
X137500000Y-76600000D02*
X140550000Y-76600000D01*
X137500000Y-80900000D02*
X140550000Y-80900000D01*
X137500000Y-80900000D02*
G75*
G02*
X137521766Y-76584475I1550000J2150000D01*
G01*
X140550000Y-76600000D02*
G75*
G02*
X140594513Y-80868249I-1500000J-2150000D01*
G01*
G04 #@! TO.C,R2*
X119560000Y-80580000D02*
X126100000Y-80580000D01*
X119560000Y-80910000D02*
X119560000Y-80580000D01*
X119560000Y-82990000D02*
X119560000Y-83320000D01*
X119560000Y-83320000D02*
X126100000Y-83320000D01*
X126100000Y-80580000D02*
X126100000Y-80910000D01*
X126100000Y-83320000D02*
X126100000Y-82990000D01*
G04 #@! TO.C,R1*
X119560000Y-76530000D02*
X126100000Y-76530000D01*
X119560000Y-76860000D02*
X119560000Y-76530000D01*
X119560000Y-78940000D02*
X119560000Y-79270000D01*
X119560000Y-79270000D02*
X126100000Y-79270000D01*
X126100000Y-76530000D02*
X126100000Y-76860000D01*
X126100000Y-79270000D02*
X126100000Y-78940000D01*
G04 #@! TO.C,Q1*
X150800000Y-61880000D02*
X147200000Y-61880000D01*
X150811453Y-61887844D02*
G75*
G02*
X149820000Y-66180000I-1811453J-1842156D01*
G01*
X148220000Y-66180000D02*
G75*
G02*
X147191555Y-61902316I780000J2450000D01*
G01*
G04 #@! TO.C,D1*
X129390000Y-78065000D02*
X129390000Y-81155000D01*
X129390000Y-78065170D02*
G75*
G02*
X134940000Y-79609952I2560000J-1544830D01*
G01*
X134940000Y-79610048D02*
G75*
G02*
X129390000Y-81154830I-2990000J48D01*
G01*
X134450000Y-79610000D02*
G75*
G02*
X129450000Y-79610000I-2500000J0D01*
G01*
X129450000Y-79610000D02*
G75*
G02*
X134450000Y-79610000I2500000J0D01*
G01*
G04 #@! TO.C,BT1*
X119060000Y-59398075D02*
X119060000Y-61858075D01*
X119060000Y-67858075D02*
X119060000Y-68488075D01*
X119060000Y-68488075D02*
X120500000Y-72438075D01*
X121140000Y-57318075D02*
X119060000Y-59398075D01*
X124640000Y-57318075D02*
X121140000Y-57318075D01*
X138540000Y-57318075D02*
X135040000Y-57318075D01*
X138540000Y-57318075D02*
X140620000Y-59398075D01*
X140620000Y-59398075D02*
X140620000Y-61858075D01*
X140620000Y-67858075D02*
X140620000Y-68488075D01*
X140620000Y-68488075D02*
X139180000Y-72438075D01*
X123836646Y-73424605D02*
G75*
G02*
X120500000Y-72438075I-1306646J1716531D01*
G01*
X139165243Y-72446244D02*
G75*
G02*
X135840000Y-73408075I-2015243J738169D01*
G01*
G04 #@! TD*
%LPC*%
D13*
G04 #@! TO.C,R3*
X137350000Y-78750000D03*
X140750000Y-78750000D03*
G04 #@! TD*
D14*
G04 #@! TO.C,R2*
X119020000Y-81950000D03*
D15*
X126640000Y-81950000D03*
G04 #@! TD*
D14*
G04 #@! TO.C,R1*
X119020000Y-77900000D03*
D15*
X126640000Y-77900000D03*
G04 #@! TD*
D16*
G04 #@! TO.C,Q1*
X150270000Y-63330000D03*
D17*
X149000000Y-65400000D03*
X147730000Y-63330000D03*
G04 #@! TD*
D18*
G04 #@! TO.C,D1*
X130680000Y-79610000D03*
D19*
X133220000Y-79610000D03*
G04 #@! TD*
D20*
G04 #@! TO.C,BT1*
X118855000Y-64858075D03*
X140825000Y-64858075D03*
D21*
X129840000Y-64858075D03*
G04 #@! TD*
%LPD*%
M02*
