%TF.GenerationSoftware,KiCad,Pcbnew,9.0.1*%
%TF.CreationDate,2025-06-30T22:23:46+05:30*%
%TF.ProjectId,solder,736f6c64-6572-42e6-9b69-6361645f7063,rev?*%
%TF.SameCoordinates,Original*%
%TF.FileFunction,Drillmap*%
%TF.FilePolarity,Positive*%
%FSLAX45Y45*%
G04 Gerber Fmt 4.5, Leading zero omitted, Abs format (unit mm)*
G04 Created by KiCad (PCBNEW 9.0.1) date 2025-06-30 22:23:46*
%MOMM*%
%LPD*%
G01*
G04 APERTURE LIST*
%ADD10C,0.050000*%
%ADD11C,0.200000*%
%ADD12C,0.100000*%
G04 APERTURE END LIST*
D10*
X15665638Y-7100000D02*
G75*
G02*
X10534362Y-7100000I-2565638J0D01*
G01*
X10534362Y-7100000D02*
G75*
G02*
X15665638Y-7100000I2565638J0D01*
G01*
D11*
D12*
X14735500Y-6335500D02*
X14810500Y-6410500D01*
X14810500Y-6335500D02*
X14735500Y-6410500D01*
X14862500Y-6462500D02*
X14937500Y-6537500D01*
X14937500Y-6462500D02*
X14862500Y-6537500D01*
X14989500Y-6335500D02*
X15064500Y-6410500D01*
X15064500Y-6335500D02*
X14989500Y-6410500D01*
X11942000Y-7790000D02*
G75*
G02*
X11862000Y-7790000I-40000J0D01*
G01*
X11862000Y-7790000D02*
G75*
G02*
X11942000Y-7790000I40000J0D01*
G01*
X11942000Y-8195000D02*
G75*
G02*
X11862000Y-8195000I-40000J0D01*
G01*
X11862000Y-8195000D02*
G75*
G02*
X11942000Y-8195000I40000J0D01*
G01*
X12704000Y-7790000D02*
G75*
G02*
X12624000Y-7790000I-40000J0D01*
G01*
X12624000Y-7790000D02*
G75*
G02*
X12704000Y-7790000I40000J0D01*
G01*
X12704000Y-8195000D02*
G75*
G02*
X12624000Y-8195000I-40000J0D01*
G01*
X12624000Y-8195000D02*
G75*
G02*
X12704000Y-8195000I40000J0D01*
G01*
X13775000Y-7875000D02*
G75*
G02*
X13695000Y-7875000I-40000J0D01*
G01*
X13695000Y-7875000D02*
G75*
G02*
X13775000Y-7875000I40000J0D01*
G01*
X14115000Y-7875000D02*
G75*
G02*
X14035000Y-7875000I-40000J0D01*
G01*
X14035000Y-7875000D02*
G75*
G02*
X14115000Y-7875000I40000J0D01*
G01*
X13068000Y-7916000D02*
X13068000Y-8006000D01*
X13023000Y-7961000D02*
X13113000Y-7961000D01*
X13322000Y-7916000D02*
X13322000Y-8006000D01*
X13277000Y-7961000D02*
X13367000Y-7961000D01*
D11*
X10792639Y-9979622D02*
X10792639Y-9779622D01*
X10792639Y-9779622D02*
X10840258Y-9779622D01*
X10840258Y-9779622D02*
X10868829Y-9789146D01*
X10868829Y-9789146D02*
X10887877Y-9808194D01*
X10887877Y-9808194D02*
X10897400Y-9827241D01*
X10897400Y-9827241D02*
X10906924Y-9865336D01*
X10906924Y-9865336D02*
X10906924Y-9893908D01*
X10906924Y-9893908D02*
X10897400Y-9932003D01*
X10897400Y-9932003D02*
X10887877Y-9951051D01*
X10887877Y-9951051D02*
X10868829Y-9970098D01*
X10868829Y-9970098D02*
X10840258Y-9979622D01*
X10840258Y-9979622D02*
X10792639Y-9979622D01*
X10992639Y-9979622D02*
X10992639Y-9846289D01*
X10992639Y-9884384D02*
X11002162Y-9865336D01*
X11002162Y-9865336D02*
X11011686Y-9855813D01*
X11011686Y-9855813D02*
X11030734Y-9846289D01*
X11030734Y-9846289D02*
X11049781Y-9846289D01*
X11116448Y-9979622D02*
X11116448Y-9846289D01*
X11116448Y-9779622D02*
X11106924Y-9789146D01*
X11106924Y-9789146D02*
X11116448Y-9798670D01*
X11116448Y-9798670D02*
X11125972Y-9789146D01*
X11125972Y-9789146D02*
X11116448Y-9779622D01*
X11116448Y-9779622D02*
X11116448Y-9798670D01*
X11240257Y-9979622D02*
X11221210Y-9970098D01*
X11221210Y-9970098D02*
X11211686Y-9951051D01*
X11211686Y-9951051D02*
X11211686Y-9779622D01*
X11345019Y-9979622D02*
X11325972Y-9970098D01*
X11325972Y-9970098D02*
X11316448Y-9951051D01*
X11316448Y-9951051D02*
X11316448Y-9779622D01*
X11573591Y-9979622D02*
X11573591Y-9779622D01*
X11573591Y-9779622D02*
X11640258Y-9922479D01*
X11640258Y-9922479D02*
X11706924Y-9779622D01*
X11706924Y-9779622D02*
X11706924Y-9979622D01*
X11887877Y-9979622D02*
X11887877Y-9874860D01*
X11887877Y-9874860D02*
X11878353Y-9855813D01*
X11878353Y-9855813D02*
X11859305Y-9846289D01*
X11859305Y-9846289D02*
X11821210Y-9846289D01*
X11821210Y-9846289D02*
X11802162Y-9855813D01*
X11887877Y-9970098D02*
X11868829Y-9979622D01*
X11868829Y-9979622D02*
X11821210Y-9979622D01*
X11821210Y-9979622D02*
X11802162Y-9970098D01*
X11802162Y-9970098D02*
X11792638Y-9951051D01*
X11792638Y-9951051D02*
X11792638Y-9932003D01*
X11792638Y-9932003D02*
X11802162Y-9912955D01*
X11802162Y-9912955D02*
X11821210Y-9903432D01*
X11821210Y-9903432D02*
X11868829Y-9903432D01*
X11868829Y-9903432D02*
X11887877Y-9893908D01*
X11983115Y-9846289D02*
X11983115Y-10046289D01*
X11983115Y-9855813D02*
X12002162Y-9846289D01*
X12002162Y-9846289D02*
X12040258Y-9846289D01*
X12040258Y-9846289D02*
X12059305Y-9855813D01*
X12059305Y-9855813D02*
X12068829Y-9865336D01*
X12068829Y-9865336D02*
X12078353Y-9884384D01*
X12078353Y-9884384D02*
X12078353Y-9941527D01*
X12078353Y-9941527D02*
X12068829Y-9960574D01*
X12068829Y-9960574D02*
X12059305Y-9970098D01*
X12059305Y-9970098D02*
X12040258Y-9979622D01*
X12040258Y-9979622D02*
X12002162Y-9979622D01*
X12002162Y-9979622D02*
X11983115Y-9970098D01*
X12164067Y-9960574D02*
X12173591Y-9970098D01*
X12173591Y-9970098D02*
X12164067Y-9979622D01*
X12164067Y-9979622D02*
X12154543Y-9970098D01*
X12154543Y-9970098D02*
X12164067Y-9960574D01*
X12164067Y-9960574D02*
X12164067Y-9979622D01*
X12164067Y-9855813D02*
X12173591Y-9865336D01*
X12173591Y-9865336D02*
X12164067Y-9874860D01*
X12164067Y-9874860D02*
X12154543Y-9865336D01*
X12154543Y-9865336D02*
X12164067Y-9855813D01*
X12164067Y-9855813D02*
X12164067Y-9874860D01*
D12*
X10456862Y-10270638D02*
X10531862Y-10345638D01*
X10531862Y-10270638D02*
X10456862Y-10345638D01*
D11*
X10830734Y-10199622D02*
X10849781Y-10199622D01*
X10849781Y-10199622D02*
X10868829Y-10209146D01*
X10868829Y-10209146D02*
X10878353Y-10218670D01*
X10878353Y-10218670D02*
X10887877Y-10237717D01*
X10887877Y-10237717D02*
X10897400Y-10275813D01*
X10897400Y-10275813D02*
X10897400Y-10323432D01*
X10897400Y-10323432D02*
X10887877Y-10361527D01*
X10887877Y-10361527D02*
X10878353Y-10380574D01*
X10878353Y-10380574D02*
X10868829Y-10390098D01*
X10868829Y-10390098D02*
X10849781Y-10399622D01*
X10849781Y-10399622D02*
X10830734Y-10399622D01*
X10830734Y-10399622D02*
X10811686Y-10390098D01*
X10811686Y-10390098D02*
X10802162Y-10380574D01*
X10802162Y-10380574D02*
X10792639Y-10361527D01*
X10792639Y-10361527D02*
X10783115Y-10323432D01*
X10783115Y-10323432D02*
X10783115Y-10275813D01*
X10783115Y-10275813D02*
X10792639Y-10237717D01*
X10792639Y-10237717D02*
X10802162Y-10218670D01*
X10802162Y-10218670D02*
X10811686Y-10209146D01*
X10811686Y-10209146D02*
X10830734Y-10199622D01*
X10983115Y-10380574D02*
X10992639Y-10390098D01*
X10992639Y-10390098D02*
X10983115Y-10399622D01*
X10983115Y-10399622D02*
X10973591Y-10390098D01*
X10973591Y-10390098D02*
X10983115Y-10380574D01*
X10983115Y-10380574D02*
X10983115Y-10399622D01*
X11059305Y-10199622D02*
X11192638Y-10199622D01*
X11192638Y-10199622D02*
X11106924Y-10399622D01*
X11364067Y-10199622D02*
X11268829Y-10199622D01*
X11268829Y-10199622D02*
X11259305Y-10294860D01*
X11259305Y-10294860D02*
X11268829Y-10285336D01*
X11268829Y-10285336D02*
X11287877Y-10275813D01*
X11287877Y-10275813D02*
X11335496Y-10275813D01*
X11335496Y-10275813D02*
X11354543Y-10285336D01*
X11354543Y-10285336D02*
X11364067Y-10294860D01*
X11364067Y-10294860D02*
X11373591Y-10313908D01*
X11373591Y-10313908D02*
X11373591Y-10361527D01*
X11373591Y-10361527D02*
X11364067Y-10380574D01*
X11364067Y-10380574D02*
X11354543Y-10390098D01*
X11354543Y-10390098D02*
X11335496Y-10399622D01*
X11335496Y-10399622D02*
X11287877Y-10399622D01*
X11287877Y-10399622D02*
X11268829Y-10390098D01*
X11268829Y-10390098D02*
X11259305Y-10380574D01*
X11497400Y-10199622D02*
X11516448Y-10199622D01*
X11516448Y-10199622D02*
X11535496Y-10209146D01*
X11535496Y-10209146D02*
X11545019Y-10218670D01*
X11545019Y-10218670D02*
X11554543Y-10237717D01*
X11554543Y-10237717D02*
X11564067Y-10275813D01*
X11564067Y-10275813D02*
X11564067Y-10323432D01*
X11564067Y-10323432D02*
X11554543Y-10361527D01*
X11554543Y-10361527D02*
X11545019Y-10380574D01*
X11545019Y-10380574D02*
X11535496Y-10390098D01*
X11535496Y-10390098D02*
X11516448Y-10399622D01*
X11516448Y-10399622D02*
X11497400Y-10399622D01*
X11497400Y-10399622D02*
X11478353Y-10390098D01*
X11478353Y-10390098D02*
X11468829Y-10380574D01*
X11468829Y-10380574D02*
X11459305Y-10361527D01*
X11459305Y-10361527D02*
X11449781Y-10323432D01*
X11449781Y-10323432D02*
X11449781Y-10275813D01*
X11449781Y-10275813D02*
X11459305Y-10237717D01*
X11459305Y-10237717D02*
X11468829Y-10218670D01*
X11468829Y-10218670D02*
X11478353Y-10209146D01*
X11478353Y-10209146D02*
X11497400Y-10199622D01*
X11649781Y-10399622D02*
X11649781Y-10266289D01*
X11649781Y-10285336D02*
X11659305Y-10275813D01*
X11659305Y-10275813D02*
X11678353Y-10266289D01*
X11678353Y-10266289D02*
X11706924Y-10266289D01*
X11706924Y-10266289D02*
X11725972Y-10275813D01*
X11725972Y-10275813D02*
X11735496Y-10294860D01*
X11735496Y-10294860D02*
X11735496Y-10399622D01*
X11735496Y-10294860D02*
X11745019Y-10275813D01*
X11745019Y-10275813D02*
X11764067Y-10266289D01*
X11764067Y-10266289D02*
X11792638Y-10266289D01*
X11792638Y-10266289D02*
X11811686Y-10275813D01*
X11811686Y-10275813D02*
X11821210Y-10294860D01*
X11821210Y-10294860D02*
X11821210Y-10399622D01*
X11916448Y-10399622D02*
X11916448Y-10266289D01*
X11916448Y-10285336D02*
X11925972Y-10275813D01*
X11925972Y-10275813D02*
X11945019Y-10266289D01*
X11945019Y-10266289D02*
X11973591Y-10266289D01*
X11973591Y-10266289D02*
X11992639Y-10275813D01*
X11992639Y-10275813D02*
X12002162Y-10294860D01*
X12002162Y-10294860D02*
X12002162Y-10399622D01*
X12002162Y-10294860D02*
X12011686Y-10275813D01*
X12011686Y-10275813D02*
X12030734Y-10266289D01*
X12030734Y-10266289D02*
X12059305Y-10266289D01*
X12059305Y-10266289D02*
X12078353Y-10275813D01*
X12078353Y-10275813D02*
X12087877Y-10294860D01*
X12087877Y-10294860D02*
X12087877Y-10399622D01*
X12478353Y-10190098D02*
X12306924Y-10447241D01*
X12735496Y-10199622D02*
X12754543Y-10199622D01*
X12754543Y-10199622D02*
X12773591Y-10209146D01*
X12773591Y-10209146D02*
X12783115Y-10218670D01*
X12783115Y-10218670D02*
X12792639Y-10237717D01*
X12792639Y-10237717D02*
X12802162Y-10275813D01*
X12802162Y-10275813D02*
X12802162Y-10323432D01*
X12802162Y-10323432D02*
X12792639Y-10361527D01*
X12792639Y-10361527D02*
X12783115Y-10380574D01*
X12783115Y-10380574D02*
X12773591Y-10390098D01*
X12773591Y-10390098D02*
X12754543Y-10399622D01*
X12754543Y-10399622D02*
X12735496Y-10399622D01*
X12735496Y-10399622D02*
X12716448Y-10390098D01*
X12716448Y-10390098D02*
X12706924Y-10380574D01*
X12706924Y-10380574D02*
X12697401Y-10361527D01*
X12697401Y-10361527D02*
X12687877Y-10323432D01*
X12687877Y-10323432D02*
X12687877Y-10275813D01*
X12687877Y-10275813D02*
X12697401Y-10237717D01*
X12697401Y-10237717D02*
X12706924Y-10218670D01*
X12706924Y-10218670D02*
X12716448Y-10209146D01*
X12716448Y-10209146D02*
X12735496Y-10199622D01*
X12887877Y-10380574D02*
X12897401Y-10390098D01*
X12897401Y-10390098D02*
X12887877Y-10399622D01*
X12887877Y-10399622D02*
X12878353Y-10390098D01*
X12878353Y-10390098D02*
X12887877Y-10380574D01*
X12887877Y-10380574D02*
X12887877Y-10399622D01*
X13021210Y-10199622D02*
X13040258Y-10199622D01*
X13040258Y-10199622D02*
X13059305Y-10209146D01*
X13059305Y-10209146D02*
X13068829Y-10218670D01*
X13068829Y-10218670D02*
X13078353Y-10237717D01*
X13078353Y-10237717D02*
X13087877Y-10275813D01*
X13087877Y-10275813D02*
X13087877Y-10323432D01*
X13087877Y-10323432D02*
X13078353Y-10361527D01*
X13078353Y-10361527D02*
X13068829Y-10380574D01*
X13068829Y-10380574D02*
X13059305Y-10390098D01*
X13059305Y-10390098D02*
X13040258Y-10399622D01*
X13040258Y-10399622D02*
X13021210Y-10399622D01*
X13021210Y-10399622D02*
X13002162Y-10390098D01*
X13002162Y-10390098D02*
X12992639Y-10380574D01*
X12992639Y-10380574D02*
X12983115Y-10361527D01*
X12983115Y-10361527D02*
X12973591Y-10323432D01*
X12973591Y-10323432D02*
X12973591Y-10275813D01*
X12973591Y-10275813D02*
X12983115Y-10237717D01*
X12983115Y-10237717D02*
X12992639Y-10218670D01*
X12992639Y-10218670D02*
X13002162Y-10209146D01*
X13002162Y-10209146D02*
X13021210Y-10199622D01*
X13164067Y-10218670D02*
X13173591Y-10209146D01*
X13173591Y-10209146D02*
X13192639Y-10199622D01*
X13192639Y-10199622D02*
X13240258Y-10199622D01*
X13240258Y-10199622D02*
X13259305Y-10209146D01*
X13259305Y-10209146D02*
X13268829Y-10218670D01*
X13268829Y-10218670D02*
X13278353Y-10237717D01*
X13278353Y-10237717D02*
X13278353Y-10256765D01*
X13278353Y-10256765D02*
X13268829Y-10285336D01*
X13268829Y-10285336D02*
X13154543Y-10399622D01*
X13154543Y-10399622D02*
X13278353Y-10399622D01*
X13373591Y-10399622D02*
X13411686Y-10399622D01*
X13411686Y-10399622D02*
X13430734Y-10390098D01*
X13430734Y-10390098D02*
X13440258Y-10380574D01*
X13440258Y-10380574D02*
X13459305Y-10352003D01*
X13459305Y-10352003D02*
X13468829Y-10313908D01*
X13468829Y-10313908D02*
X13468829Y-10237717D01*
X13468829Y-10237717D02*
X13459305Y-10218670D01*
X13459305Y-10218670D02*
X13449782Y-10209146D01*
X13449782Y-10209146D02*
X13430734Y-10199622D01*
X13430734Y-10199622D02*
X13392639Y-10199622D01*
X13392639Y-10199622D02*
X13373591Y-10209146D01*
X13373591Y-10209146D02*
X13364067Y-10218670D01*
X13364067Y-10218670D02*
X13354543Y-10237717D01*
X13354543Y-10237717D02*
X13354543Y-10285336D01*
X13354543Y-10285336D02*
X13364067Y-10304384D01*
X13364067Y-10304384D02*
X13373591Y-10313908D01*
X13373591Y-10313908D02*
X13392639Y-10323432D01*
X13392639Y-10323432D02*
X13430734Y-10323432D01*
X13430734Y-10323432D02*
X13449782Y-10313908D01*
X13449782Y-10313908D02*
X13459305Y-10304384D01*
X13459305Y-10304384D02*
X13468829Y-10285336D01*
X13649782Y-10199622D02*
X13554543Y-10199622D01*
X13554543Y-10199622D02*
X13545020Y-10294860D01*
X13545020Y-10294860D02*
X13554543Y-10285336D01*
X13554543Y-10285336D02*
X13573591Y-10275813D01*
X13573591Y-10275813D02*
X13621210Y-10275813D01*
X13621210Y-10275813D02*
X13640258Y-10285336D01*
X13640258Y-10285336D02*
X13649782Y-10294860D01*
X13649782Y-10294860D02*
X13659305Y-10313908D01*
X13659305Y-10313908D02*
X13659305Y-10361527D01*
X13659305Y-10361527D02*
X13649782Y-10380574D01*
X13649782Y-10380574D02*
X13640258Y-10390098D01*
X13640258Y-10390098D02*
X13621210Y-10399622D01*
X13621210Y-10399622D02*
X13573591Y-10399622D01*
X13573591Y-10399622D02*
X13554543Y-10390098D01*
X13554543Y-10390098D02*
X13545020Y-10380574D01*
X13735496Y-10199622D02*
X13735496Y-10237717D01*
X13811686Y-10199622D02*
X13811686Y-10237717D01*
X14106925Y-10475813D02*
X14097401Y-10466289D01*
X14097401Y-10466289D02*
X14078353Y-10437717D01*
X14078353Y-10437717D02*
X14068829Y-10418670D01*
X14068829Y-10418670D02*
X14059305Y-10390098D01*
X14059305Y-10390098D02*
X14049782Y-10342479D01*
X14049782Y-10342479D02*
X14049782Y-10304384D01*
X14049782Y-10304384D02*
X14059305Y-10256765D01*
X14059305Y-10256765D02*
X14068829Y-10228194D01*
X14068829Y-10228194D02*
X14078353Y-10209146D01*
X14078353Y-10209146D02*
X14097401Y-10180574D01*
X14097401Y-10180574D02*
X14106925Y-10171051D01*
X14164067Y-10199622D02*
X14287877Y-10199622D01*
X14287877Y-10199622D02*
X14221210Y-10275813D01*
X14221210Y-10275813D02*
X14249782Y-10275813D01*
X14249782Y-10275813D02*
X14268829Y-10285336D01*
X14268829Y-10285336D02*
X14278353Y-10294860D01*
X14278353Y-10294860D02*
X14287877Y-10313908D01*
X14287877Y-10313908D02*
X14287877Y-10361527D01*
X14287877Y-10361527D02*
X14278353Y-10380574D01*
X14278353Y-10380574D02*
X14268829Y-10390098D01*
X14268829Y-10390098D02*
X14249782Y-10399622D01*
X14249782Y-10399622D02*
X14192639Y-10399622D01*
X14192639Y-10399622D02*
X14173591Y-10390098D01*
X14173591Y-10390098D02*
X14164067Y-10380574D01*
X14525972Y-10399622D02*
X14525972Y-10199622D01*
X14611686Y-10399622D02*
X14611686Y-10294860D01*
X14611686Y-10294860D02*
X14602163Y-10275813D01*
X14602163Y-10275813D02*
X14583115Y-10266289D01*
X14583115Y-10266289D02*
X14554544Y-10266289D01*
X14554544Y-10266289D02*
X14535496Y-10275813D01*
X14535496Y-10275813D02*
X14525972Y-10285336D01*
X14735496Y-10399622D02*
X14716448Y-10390098D01*
X14716448Y-10390098D02*
X14706925Y-10380574D01*
X14706925Y-10380574D02*
X14697401Y-10361527D01*
X14697401Y-10361527D02*
X14697401Y-10304384D01*
X14697401Y-10304384D02*
X14706925Y-10285336D01*
X14706925Y-10285336D02*
X14716448Y-10275813D01*
X14716448Y-10275813D02*
X14735496Y-10266289D01*
X14735496Y-10266289D02*
X14764067Y-10266289D01*
X14764067Y-10266289D02*
X14783115Y-10275813D01*
X14783115Y-10275813D02*
X14792639Y-10285336D01*
X14792639Y-10285336D02*
X14802163Y-10304384D01*
X14802163Y-10304384D02*
X14802163Y-10361527D01*
X14802163Y-10361527D02*
X14792639Y-10380574D01*
X14792639Y-10380574D02*
X14783115Y-10390098D01*
X14783115Y-10390098D02*
X14764067Y-10399622D01*
X14764067Y-10399622D02*
X14735496Y-10399622D01*
X14916448Y-10399622D02*
X14897401Y-10390098D01*
X14897401Y-10390098D02*
X14887877Y-10371051D01*
X14887877Y-10371051D02*
X14887877Y-10199622D01*
X15068829Y-10390098D02*
X15049782Y-10399622D01*
X15049782Y-10399622D02*
X15011686Y-10399622D01*
X15011686Y-10399622D02*
X14992639Y-10390098D01*
X14992639Y-10390098D02*
X14983115Y-10371051D01*
X14983115Y-10371051D02*
X14983115Y-10294860D01*
X14983115Y-10294860D02*
X14992639Y-10275813D01*
X14992639Y-10275813D02*
X15011686Y-10266289D01*
X15011686Y-10266289D02*
X15049782Y-10266289D01*
X15049782Y-10266289D02*
X15068829Y-10275813D01*
X15068829Y-10275813D02*
X15078353Y-10294860D01*
X15078353Y-10294860D02*
X15078353Y-10313908D01*
X15078353Y-10313908D02*
X14983115Y-10332955D01*
X15154544Y-10390098D02*
X15173591Y-10399622D01*
X15173591Y-10399622D02*
X15211686Y-10399622D01*
X15211686Y-10399622D02*
X15230734Y-10390098D01*
X15230734Y-10390098D02*
X15240258Y-10371051D01*
X15240258Y-10371051D02*
X15240258Y-10361527D01*
X15240258Y-10361527D02*
X15230734Y-10342479D01*
X15230734Y-10342479D02*
X15211686Y-10332955D01*
X15211686Y-10332955D02*
X15183115Y-10332955D01*
X15183115Y-10332955D02*
X15164067Y-10323432D01*
X15164067Y-10323432D02*
X15154544Y-10304384D01*
X15154544Y-10304384D02*
X15154544Y-10294860D01*
X15154544Y-10294860D02*
X15164067Y-10275813D01*
X15164067Y-10275813D02*
X15183115Y-10266289D01*
X15183115Y-10266289D02*
X15211686Y-10266289D01*
X15211686Y-10266289D02*
X15230734Y-10275813D01*
X15306925Y-10475813D02*
X15316448Y-10466289D01*
X15316448Y-10466289D02*
X15335496Y-10437717D01*
X15335496Y-10437717D02*
X15345020Y-10418670D01*
X15345020Y-10418670D02*
X15354544Y-10390098D01*
X15354544Y-10390098D02*
X15364067Y-10342479D01*
X15364067Y-10342479D02*
X15364067Y-10304384D01*
X15364067Y-10304384D02*
X15354544Y-10256765D01*
X15354544Y-10256765D02*
X15345020Y-10228194D01*
X15345020Y-10228194D02*
X15335496Y-10209146D01*
X15335496Y-10209146D02*
X15316448Y-10180574D01*
X15316448Y-10180574D02*
X15306925Y-10171051D01*
D12*
X10531862Y-10572138D02*
G75*
G02*
X10451862Y-10572138I-40000J0D01*
G01*
X10451862Y-10572138D02*
G75*
G02*
X10531862Y-10572138I40000J0D01*
G01*
D11*
X10830734Y-10463622D02*
X10849781Y-10463622D01*
X10849781Y-10463622D02*
X10868829Y-10473146D01*
X10868829Y-10473146D02*
X10878353Y-10482670D01*
X10878353Y-10482670D02*
X10887877Y-10501717D01*
X10887877Y-10501717D02*
X10897400Y-10539813D01*
X10897400Y-10539813D02*
X10897400Y-10587432D01*
X10897400Y-10587432D02*
X10887877Y-10625527D01*
X10887877Y-10625527D02*
X10878353Y-10644574D01*
X10878353Y-10644574D02*
X10868829Y-10654098D01*
X10868829Y-10654098D02*
X10849781Y-10663622D01*
X10849781Y-10663622D02*
X10830734Y-10663622D01*
X10830734Y-10663622D02*
X10811686Y-10654098D01*
X10811686Y-10654098D02*
X10802162Y-10644574D01*
X10802162Y-10644574D02*
X10792639Y-10625527D01*
X10792639Y-10625527D02*
X10783115Y-10587432D01*
X10783115Y-10587432D02*
X10783115Y-10539813D01*
X10783115Y-10539813D02*
X10792639Y-10501717D01*
X10792639Y-10501717D02*
X10802162Y-10482670D01*
X10802162Y-10482670D02*
X10811686Y-10473146D01*
X10811686Y-10473146D02*
X10830734Y-10463622D01*
X10983115Y-10644574D02*
X10992639Y-10654098D01*
X10992639Y-10654098D02*
X10983115Y-10663622D01*
X10983115Y-10663622D02*
X10973591Y-10654098D01*
X10973591Y-10654098D02*
X10983115Y-10644574D01*
X10983115Y-10644574D02*
X10983115Y-10663622D01*
X11106924Y-10549336D02*
X11087877Y-10539813D01*
X11087877Y-10539813D02*
X11078353Y-10530289D01*
X11078353Y-10530289D02*
X11068829Y-10511241D01*
X11068829Y-10511241D02*
X11068829Y-10501717D01*
X11068829Y-10501717D02*
X11078353Y-10482670D01*
X11078353Y-10482670D02*
X11087877Y-10473146D01*
X11087877Y-10473146D02*
X11106924Y-10463622D01*
X11106924Y-10463622D02*
X11145020Y-10463622D01*
X11145020Y-10463622D02*
X11164067Y-10473146D01*
X11164067Y-10473146D02*
X11173591Y-10482670D01*
X11173591Y-10482670D02*
X11183115Y-10501717D01*
X11183115Y-10501717D02*
X11183115Y-10511241D01*
X11183115Y-10511241D02*
X11173591Y-10530289D01*
X11173591Y-10530289D02*
X11164067Y-10539813D01*
X11164067Y-10539813D02*
X11145020Y-10549336D01*
X11145020Y-10549336D02*
X11106924Y-10549336D01*
X11106924Y-10549336D02*
X11087877Y-10558860D01*
X11087877Y-10558860D02*
X11078353Y-10568384D01*
X11078353Y-10568384D02*
X11068829Y-10587432D01*
X11068829Y-10587432D02*
X11068829Y-10625527D01*
X11068829Y-10625527D02*
X11078353Y-10644574D01*
X11078353Y-10644574D02*
X11087877Y-10654098D01*
X11087877Y-10654098D02*
X11106924Y-10663622D01*
X11106924Y-10663622D02*
X11145020Y-10663622D01*
X11145020Y-10663622D02*
X11164067Y-10654098D01*
X11164067Y-10654098D02*
X11173591Y-10644574D01*
X11173591Y-10644574D02*
X11183115Y-10625527D01*
X11183115Y-10625527D02*
X11183115Y-10587432D01*
X11183115Y-10587432D02*
X11173591Y-10568384D01*
X11173591Y-10568384D02*
X11164067Y-10558860D01*
X11164067Y-10558860D02*
X11145020Y-10549336D01*
X11306924Y-10463622D02*
X11325972Y-10463622D01*
X11325972Y-10463622D02*
X11345019Y-10473146D01*
X11345019Y-10473146D02*
X11354543Y-10482670D01*
X11354543Y-10482670D02*
X11364067Y-10501717D01*
X11364067Y-10501717D02*
X11373591Y-10539813D01*
X11373591Y-10539813D02*
X11373591Y-10587432D01*
X11373591Y-10587432D02*
X11364067Y-10625527D01*
X11364067Y-10625527D02*
X11354543Y-10644574D01*
X11354543Y-10644574D02*
X11345019Y-10654098D01*
X11345019Y-10654098D02*
X11325972Y-10663622D01*
X11325972Y-10663622D02*
X11306924Y-10663622D01*
X11306924Y-10663622D02*
X11287877Y-10654098D01*
X11287877Y-10654098D02*
X11278353Y-10644574D01*
X11278353Y-10644574D02*
X11268829Y-10625527D01*
X11268829Y-10625527D02*
X11259305Y-10587432D01*
X11259305Y-10587432D02*
X11259305Y-10539813D01*
X11259305Y-10539813D02*
X11268829Y-10501717D01*
X11268829Y-10501717D02*
X11278353Y-10482670D01*
X11278353Y-10482670D02*
X11287877Y-10473146D01*
X11287877Y-10473146D02*
X11306924Y-10463622D01*
X11497400Y-10463622D02*
X11516448Y-10463622D01*
X11516448Y-10463622D02*
X11535496Y-10473146D01*
X11535496Y-10473146D02*
X11545019Y-10482670D01*
X11545019Y-10482670D02*
X11554543Y-10501717D01*
X11554543Y-10501717D02*
X11564067Y-10539813D01*
X11564067Y-10539813D02*
X11564067Y-10587432D01*
X11564067Y-10587432D02*
X11554543Y-10625527D01*
X11554543Y-10625527D02*
X11545019Y-10644574D01*
X11545019Y-10644574D02*
X11535496Y-10654098D01*
X11535496Y-10654098D02*
X11516448Y-10663622D01*
X11516448Y-10663622D02*
X11497400Y-10663622D01*
X11497400Y-10663622D02*
X11478353Y-10654098D01*
X11478353Y-10654098D02*
X11468829Y-10644574D01*
X11468829Y-10644574D02*
X11459305Y-10625527D01*
X11459305Y-10625527D02*
X11449781Y-10587432D01*
X11449781Y-10587432D02*
X11449781Y-10539813D01*
X11449781Y-10539813D02*
X11459305Y-10501717D01*
X11459305Y-10501717D02*
X11468829Y-10482670D01*
X11468829Y-10482670D02*
X11478353Y-10473146D01*
X11478353Y-10473146D02*
X11497400Y-10463622D01*
X11649781Y-10663622D02*
X11649781Y-10530289D01*
X11649781Y-10549336D02*
X11659305Y-10539813D01*
X11659305Y-10539813D02*
X11678353Y-10530289D01*
X11678353Y-10530289D02*
X11706924Y-10530289D01*
X11706924Y-10530289D02*
X11725972Y-10539813D01*
X11725972Y-10539813D02*
X11735496Y-10558860D01*
X11735496Y-10558860D02*
X11735496Y-10663622D01*
X11735496Y-10558860D02*
X11745019Y-10539813D01*
X11745019Y-10539813D02*
X11764067Y-10530289D01*
X11764067Y-10530289D02*
X11792638Y-10530289D01*
X11792638Y-10530289D02*
X11811686Y-10539813D01*
X11811686Y-10539813D02*
X11821210Y-10558860D01*
X11821210Y-10558860D02*
X11821210Y-10663622D01*
X11916448Y-10663622D02*
X11916448Y-10530289D01*
X11916448Y-10549336D02*
X11925972Y-10539813D01*
X11925972Y-10539813D02*
X11945019Y-10530289D01*
X11945019Y-10530289D02*
X11973591Y-10530289D01*
X11973591Y-10530289D02*
X11992639Y-10539813D01*
X11992639Y-10539813D02*
X12002162Y-10558860D01*
X12002162Y-10558860D02*
X12002162Y-10663622D01*
X12002162Y-10558860D02*
X12011686Y-10539813D01*
X12011686Y-10539813D02*
X12030734Y-10530289D01*
X12030734Y-10530289D02*
X12059305Y-10530289D01*
X12059305Y-10530289D02*
X12078353Y-10539813D01*
X12078353Y-10539813D02*
X12087877Y-10558860D01*
X12087877Y-10558860D02*
X12087877Y-10663622D01*
X12478353Y-10454098D02*
X12306924Y-10711241D01*
X12735496Y-10463622D02*
X12754543Y-10463622D01*
X12754543Y-10463622D02*
X12773591Y-10473146D01*
X12773591Y-10473146D02*
X12783115Y-10482670D01*
X12783115Y-10482670D02*
X12792639Y-10501717D01*
X12792639Y-10501717D02*
X12802162Y-10539813D01*
X12802162Y-10539813D02*
X12802162Y-10587432D01*
X12802162Y-10587432D02*
X12792639Y-10625527D01*
X12792639Y-10625527D02*
X12783115Y-10644574D01*
X12783115Y-10644574D02*
X12773591Y-10654098D01*
X12773591Y-10654098D02*
X12754543Y-10663622D01*
X12754543Y-10663622D02*
X12735496Y-10663622D01*
X12735496Y-10663622D02*
X12716448Y-10654098D01*
X12716448Y-10654098D02*
X12706924Y-10644574D01*
X12706924Y-10644574D02*
X12697401Y-10625527D01*
X12697401Y-10625527D02*
X12687877Y-10587432D01*
X12687877Y-10587432D02*
X12687877Y-10539813D01*
X12687877Y-10539813D02*
X12697401Y-10501717D01*
X12697401Y-10501717D02*
X12706924Y-10482670D01*
X12706924Y-10482670D02*
X12716448Y-10473146D01*
X12716448Y-10473146D02*
X12735496Y-10463622D01*
X12887877Y-10644574D02*
X12897401Y-10654098D01*
X12897401Y-10654098D02*
X12887877Y-10663622D01*
X12887877Y-10663622D02*
X12878353Y-10654098D01*
X12878353Y-10654098D02*
X12887877Y-10644574D01*
X12887877Y-10644574D02*
X12887877Y-10663622D01*
X13021210Y-10463622D02*
X13040258Y-10463622D01*
X13040258Y-10463622D02*
X13059305Y-10473146D01*
X13059305Y-10473146D02*
X13068829Y-10482670D01*
X13068829Y-10482670D02*
X13078353Y-10501717D01*
X13078353Y-10501717D02*
X13087877Y-10539813D01*
X13087877Y-10539813D02*
X13087877Y-10587432D01*
X13087877Y-10587432D02*
X13078353Y-10625527D01*
X13078353Y-10625527D02*
X13068829Y-10644574D01*
X13068829Y-10644574D02*
X13059305Y-10654098D01*
X13059305Y-10654098D02*
X13040258Y-10663622D01*
X13040258Y-10663622D02*
X13021210Y-10663622D01*
X13021210Y-10663622D02*
X13002162Y-10654098D01*
X13002162Y-10654098D02*
X12992639Y-10644574D01*
X12992639Y-10644574D02*
X12983115Y-10625527D01*
X12983115Y-10625527D02*
X12973591Y-10587432D01*
X12973591Y-10587432D02*
X12973591Y-10539813D01*
X12973591Y-10539813D02*
X12983115Y-10501717D01*
X12983115Y-10501717D02*
X12992639Y-10482670D01*
X12992639Y-10482670D02*
X13002162Y-10473146D01*
X13002162Y-10473146D02*
X13021210Y-10463622D01*
X13154543Y-10463622D02*
X13278353Y-10463622D01*
X13278353Y-10463622D02*
X13211686Y-10539813D01*
X13211686Y-10539813D02*
X13240258Y-10539813D01*
X13240258Y-10539813D02*
X13259305Y-10549336D01*
X13259305Y-10549336D02*
X13268829Y-10558860D01*
X13268829Y-10558860D02*
X13278353Y-10577908D01*
X13278353Y-10577908D02*
X13278353Y-10625527D01*
X13278353Y-10625527D02*
X13268829Y-10644574D01*
X13268829Y-10644574D02*
X13259305Y-10654098D01*
X13259305Y-10654098D02*
X13240258Y-10663622D01*
X13240258Y-10663622D02*
X13183115Y-10663622D01*
X13183115Y-10663622D02*
X13164067Y-10654098D01*
X13164067Y-10654098D02*
X13154543Y-10644574D01*
X13468829Y-10663622D02*
X13354543Y-10663622D01*
X13411686Y-10663622D02*
X13411686Y-10463622D01*
X13411686Y-10463622D02*
X13392639Y-10492194D01*
X13392639Y-10492194D02*
X13373591Y-10511241D01*
X13373591Y-10511241D02*
X13354543Y-10520765D01*
X13649782Y-10463622D02*
X13554543Y-10463622D01*
X13554543Y-10463622D02*
X13545020Y-10558860D01*
X13545020Y-10558860D02*
X13554543Y-10549336D01*
X13554543Y-10549336D02*
X13573591Y-10539813D01*
X13573591Y-10539813D02*
X13621210Y-10539813D01*
X13621210Y-10539813D02*
X13640258Y-10549336D01*
X13640258Y-10549336D02*
X13649782Y-10558860D01*
X13649782Y-10558860D02*
X13659305Y-10577908D01*
X13659305Y-10577908D02*
X13659305Y-10625527D01*
X13659305Y-10625527D02*
X13649782Y-10644574D01*
X13649782Y-10644574D02*
X13640258Y-10654098D01*
X13640258Y-10654098D02*
X13621210Y-10663622D01*
X13621210Y-10663622D02*
X13573591Y-10663622D01*
X13573591Y-10663622D02*
X13554543Y-10654098D01*
X13554543Y-10654098D02*
X13545020Y-10644574D01*
X13735496Y-10463622D02*
X13735496Y-10501717D01*
X13811686Y-10463622D02*
X13811686Y-10501717D01*
X14106925Y-10739813D02*
X14097401Y-10730289D01*
X14097401Y-10730289D02*
X14078353Y-10701717D01*
X14078353Y-10701717D02*
X14068829Y-10682670D01*
X14068829Y-10682670D02*
X14059305Y-10654098D01*
X14059305Y-10654098D02*
X14049782Y-10606479D01*
X14049782Y-10606479D02*
X14049782Y-10568384D01*
X14049782Y-10568384D02*
X14059305Y-10520765D01*
X14059305Y-10520765D02*
X14068829Y-10492194D01*
X14068829Y-10492194D02*
X14078353Y-10473146D01*
X14078353Y-10473146D02*
X14097401Y-10444574D01*
X14097401Y-10444574D02*
X14106925Y-10435051D01*
X14268829Y-10463622D02*
X14230734Y-10463622D01*
X14230734Y-10463622D02*
X14211686Y-10473146D01*
X14211686Y-10473146D02*
X14202163Y-10482670D01*
X14202163Y-10482670D02*
X14183115Y-10511241D01*
X14183115Y-10511241D02*
X14173591Y-10549336D01*
X14173591Y-10549336D02*
X14173591Y-10625527D01*
X14173591Y-10625527D02*
X14183115Y-10644574D01*
X14183115Y-10644574D02*
X14192639Y-10654098D01*
X14192639Y-10654098D02*
X14211686Y-10663622D01*
X14211686Y-10663622D02*
X14249782Y-10663622D01*
X14249782Y-10663622D02*
X14268829Y-10654098D01*
X14268829Y-10654098D02*
X14278353Y-10644574D01*
X14278353Y-10644574D02*
X14287877Y-10625527D01*
X14287877Y-10625527D02*
X14287877Y-10577908D01*
X14287877Y-10577908D02*
X14278353Y-10558860D01*
X14278353Y-10558860D02*
X14268829Y-10549336D01*
X14268829Y-10549336D02*
X14249782Y-10539813D01*
X14249782Y-10539813D02*
X14211686Y-10539813D01*
X14211686Y-10539813D02*
X14192639Y-10549336D01*
X14192639Y-10549336D02*
X14183115Y-10558860D01*
X14183115Y-10558860D02*
X14173591Y-10577908D01*
X14525972Y-10663622D02*
X14525972Y-10463622D01*
X14611686Y-10663622D02*
X14611686Y-10558860D01*
X14611686Y-10558860D02*
X14602163Y-10539813D01*
X14602163Y-10539813D02*
X14583115Y-10530289D01*
X14583115Y-10530289D02*
X14554544Y-10530289D01*
X14554544Y-10530289D02*
X14535496Y-10539813D01*
X14535496Y-10539813D02*
X14525972Y-10549336D01*
X14735496Y-10663622D02*
X14716448Y-10654098D01*
X14716448Y-10654098D02*
X14706925Y-10644574D01*
X14706925Y-10644574D02*
X14697401Y-10625527D01*
X14697401Y-10625527D02*
X14697401Y-10568384D01*
X14697401Y-10568384D02*
X14706925Y-10549336D01*
X14706925Y-10549336D02*
X14716448Y-10539813D01*
X14716448Y-10539813D02*
X14735496Y-10530289D01*
X14735496Y-10530289D02*
X14764067Y-10530289D01*
X14764067Y-10530289D02*
X14783115Y-10539813D01*
X14783115Y-10539813D02*
X14792639Y-10549336D01*
X14792639Y-10549336D02*
X14802163Y-10568384D01*
X14802163Y-10568384D02*
X14802163Y-10625527D01*
X14802163Y-10625527D02*
X14792639Y-10644574D01*
X14792639Y-10644574D02*
X14783115Y-10654098D01*
X14783115Y-10654098D02*
X14764067Y-10663622D01*
X14764067Y-10663622D02*
X14735496Y-10663622D01*
X14916448Y-10663622D02*
X14897401Y-10654098D01*
X14897401Y-10654098D02*
X14887877Y-10635051D01*
X14887877Y-10635051D02*
X14887877Y-10463622D01*
X15068829Y-10654098D02*
X15049782Y-10663622D01*
X15049782Y-10663622D02*
X15011686Y-10663622D01*
X15011686Y-10663622D02*
X14992639Y-10654098D01*
X14992639Y-10654098D02*
X14983115Y-10635051D01*
X14983115Y-10635051D02*
X14983115Y-10558860D01*
X14983115Y-10558860D02*
X14992639Y-10539813D01*
X14992639Y-10539813D02*
X15011686Y-10530289D01*
X15011686Y-10530289D02*
X15049782Y-10530289D01*
X15049782Y-10530289D02*
X15068829Y-10539813D01*
X15068829Y-10539813D02*
X15078353Y-10558860D01*
X15078353Y-10558860D02*
X15078353Y-10577908D01*
X15078353Y-10577908D02*
X14983115Y-10596955D01*
X15154544Y-10654098D02*
X15173591Y-10663622D01*
X15173591Y-10663622D02*
X15211686Y-10663622D01*
X15211686Y-10663622D02*
X15230734Y-10654098D01*
X15230734Y-10654098D02*
X15240258Y-10635051D01*
X15240258Y-10635051D02*
X15240258Y-10625527D01*
X15240258Y-10625527D02*
X15230734Y-10606479D01*
X15230734Y-10606479D02*
X15211686Y-10596955D01*
X15211686Y-10596955D02*
X15183115Y-10596955D01*
X15183115Y-10596955D02*
X15164067Y-10587432D01*
X15164067Y-10587432D02*
X15154544Y-10568384D01*
X15154544Y-10568384D02*
X15154544Y-10558860D01*
X15154544Y-10558860D02*
X15164067Y-10539813D01*
X15164067Y-10539813D02*
X15183115Y-10530289D01*
X15183115Y-10530289D02*
X15211686Y-10530289D01*
X15211686Y-10530289D02*
X15230734Y-10539813D01*
X15306925Y-10739813D02*
X15316448Y-10730289D01*
X15316448Y-10730289D02*
X15335496Y-10701717D01*
X15335496Y-10701717D02*
X15345020Y-10682670D01*
X15345020Y-10682670D02*
X15354544Y-10654098D01*
X15354544Y-10654098D02*
X15364067Y-10606479D01*
X15364067Y-10606479D02*
X15364067Y-10568384D01*
X15364067Y-10568384D02*
X15354544Y-10520765D01*
X15354544Y-10520765D02*
X15345020Y-10492194D01*
X15345020Y-10492194D02*
X15335496Y-10473146D01*
X15335496Y-10473146D02*
X15316448Y-10444574D01*
X15316448Y-10444574D02*
X15306925Y-10435051D01*
D12*
X10486862Y-10791138D02*
X10486862Y-10881138D01*
X10441862Y-10836138D02*
X10531862Y-10836138D01*
D11*
X10830734Y-10727622D02*
X10849781Y-10727622D01*
X10849781Y-10727622D02*
X10868829Y-10737146D01*
X10868829Y-10737146D02*
X10878353Y-10746670D01*
X10878353Y-10746670D02*
X10887877Y-10765717D01*
X10887877Y-10765717D02*
X10897400Y-10803813D01*
X10897400Y-10803813D02*
X10897400Y-10851432D01*
X10897400Y-10851432D02*
X10887877Y-10889527D01*
X10887877Y-10889527D02*
X10878353Y-10908574D01*
X10878353Y-10908574D02*
X10868829Y-10918098D01*
X10868829Y-10918098D02*
X10849781Y-10927622D01*
X10849781Y-10927622D02*
X10830734Y-10927622D01*
X10830734Y-10927622D02*
X10811686Y-10918098D01*
X10811686Y-10918098D02*
X10802162Y-10908574D01*
X10802162Y-10908574D02*
X10792639Y-10889527D01*
X10792639Y-10889527D02*
X10783115Y-10851432D01*
X10783115Y-10851432D02*
X10783115Y-10803813D01*
X10783115Y-10803813D02*
X10792639Y-10765717D01*
X10792639Y-10765717D02*
X10802162Y-10746670D01*
X10802162Y-10746670D02*
X10811686Y-10737146D01*
X10811686Y-10737146D02*
X10830734Y-10727622D01*
X10983115Y-10908574D02*
X10992639Y-10918098D01*
X10992639Y-10918098D02*
X10983115Y-10927622D01*
X10983115Y-10927622D02*
X10973591Y-10918098D01*
X10973591Y-10918098D02*
X10983115Y-10908574D01*
X10983115Y-10908574D02*
X10983115Y-10927622D01*
X11087877Y-10927622D02*
X11125972Y-10927622D01*
X11125972Y-10927622D02*
X11145020Y-10918098D01*
X11145020Y-10918098D02*
X11154543Y-10908574D01*
X11154543Y-10908574D02*
X11173591Y-10880003D01*
X11173591Y-10880003D02*
X11183115Y-10841908D01*
X11183115Y-10841908D02*
X11183115Y-10765717D01*
X11183115Y-10765717D02*
X11173591Y-10746670D01*
X11173591Y-10746670D02*
X11164067Y-10737146D01*
X11164067Y-10737146D02*
X11145020Y-10727622D01*
X11145020Y-10727622D02*
X11106924Y-10727622D01*
X11106924Y-10727622D02*
X11087877Y-10737146D01*
X11087877Y-10737146D02*
X11078353Y-10746670D01*
X11078353Y-10746670D02*
X11068829Y-10765717D01*
X11068829Y-10765717D02*
X11068829Y-10813336D01*
X11068829Y-10813336D02*
X11078353Y-10832384D01*
X11078353Y-10832384D02*
X11087877Y-10841908D01*
X11087877Y-10841908D02*
X11106924Y-10851432D01*
X11106924Y-10851432D02*
X11145020Y-10851432D01*
X11145020Y-10851432D02*
X11164067Y-10841908D01*
X11164067Y-10841908D02*
X11173591Y-10832384D01*
X11173591Y-10832384D02*
X11183115Y-10813336D01*
X11306924Y-10727622D02*
X11325972Y-10727622D01*
X11325972Y-10727622D02*
X11345019Y-10737146D01*
X11345019Y-10737146D02*
X11354543Y-10746670D01*
X11354543Y-10746670D02*
X11364067Y-10765717D01*
X11364067Y-10765717D02*
X11373591Y-10803813D01*
X11373591Y-10803813D02*
X11373591Y-10851432D01*
X11373591Y-10851432D02*
X11364067Y-10889527D01*
X11364067Y-10889527D02*
X11354543Y-10908574D01*
X11354543Y-10908574D02*
X11345019Y-10918098D01*
X11345019Y-10918098D02*
X11325972Y-10927622D01*
X11325972Y-10927622D02*
X11306924Y-10927622D01*
X11306924Y-10927622D02*
X11287877Y-10918098D01*
X11287877Y-10918098D02*
X11278353Y-10908574D01*
X11278353Y-10908574D02*
X11268829Y-10889527D01*
X11268829Y-10889527D02*
X11259305Y-10851432D01*
X11259305Y-10851432D02*
X11259305Y-10803813D01*
X11259305Y-10803813D02*
X11268829Y-10765717D01*
X11268829Y-10765717D02*
X11278353Y-10746670D01*
X11278353Y-10746670D02*
X11287877Y-10737146D01*
X11287877Y-10737146D02*
X11306924Y-10727622D01*
X11497400Y-10727622D02*
X11516448Y-10727622D01*
X11516448Y-10727622D02*
X11535496Y-10737146D01*
X11535496Y-10737146D02*
X11545019Y-10746670D01*
X11545019Y-10746670D02*
X11554543Y-10765717D01*
X11554543Y-10765717D02*
X11564067Y-10803813D01*
X11564067Y-10803813D02*
X11564067Y-10851432D01*
X11564067Y-10851432D02*
X11554543Y-10889527D01*
X11554543Y-10889527D02*
X11545019Y-10908574D01*
X11545019Y-10908574D02*
X11535496Y-10918098D01*
X11535496Y-10918098D02*
X11516448Y-10927622D01*
X11516448Y-10927622D02*
X11497400Y-10927622D01*
X11497400Y-10927622D02*
X11478353Y-10918098D01*
X11478353Y-10918098D02*
X11468829Y-10908574D01*
X11468829Y-10908574D02*
X11459305Y-10889527D01*
X11459305Y-10889527D02*
X11449781Y-10851432D01*
X11449781Y-10851432D02*
X11449781Y-10803813D01*
X11449781Y-10803813D02*
X11459305Y-10765717D01*
X11459305Y-10765717D02*
X11468829Y-10746670D01*
X11468829Y-10746670D02*
X11478353Y-10737146D01*
X11478353Y-10737146D02*
X11497400Y-10727622D01*
X11649781Y-10927622D02*
X11649781Y-10794289D01*
X11649781Y-10813336D02*
X11659305Y-10803813D01*
X11659305Y-10803813D02*
X11678353Y-10794289D01*
X11678353Y-10794289D02*
X11706924Y-10794289D01*
X11706924Y-10794289D02*
X11725972Y-10803813D01*
X11725972Y-10803813D02*
X11735496Y-10822860D01*
X11735496Y-10822860D02*
X11735496Y-10927622D01*
X11735496Y-10822860D02*
X11745019Y-10803813D01*
X11745019Y-10803813D02*
X11764067Y-10794289D01*
X11764067Y-10794289D02*
X11792638Y-10794289D01*
X11792638Y-10794289D02*
X11811686Y-10803813D01*
X11811686Y-10803813D02*
X11821210Y-10822860D01*
X11821210Y-10822860D02*
X11821210Y-10927622D01*
X11916448Y-10927622D02*
X11916448Y-10794289D01*
X11916448Y-10813336D02*
X11925972Y-10803813D01*
X11925972Y-10803813D02*
X11945019Y-10794289D01*
X11945019Y-10794289D02*
X11973591Y-10794289D01*
X11973591Y-10794289D02*
X11992639Y-10803813D01*
X11992639Y-10803813D02*
X12002162Y-10822860D01*
X12002162Y-10822860D02*
X12002162Y-10927622D01*
X12002162Y-10822860D02*
X12011686Y-10803813D01*
X12011686Y-10803813D02*
X12030734Y-10794289D01*
X12030734Y-10794289D02*
X12059305Y-10794289D01*
X12059305Y-10794289D02*
X12078353Y-10803813D01*
X12078353Y-10803813D02*
X12087877Y-10822860D01*
X12087877Y-10822860D02*
X12087877Y-10927622D01*
X12478353Y-10718098D02*
X12306924Y-10975241D01*
X12735496Y-10727622D02*
X12754543Y-10727622D01*
X12754543Y-10727622D02*
X12773591Y-10737146D01*
X12773591Y-10737146D02*
X12783115Y-10746670D01*
X12783115Y-10746670D02*
X12792639Y-10765717D01*
X12792639Y-10765717D02*
X12802162Y-10803813D01*
X12802162Y-10803813D02*
X12802162Y-10851432D01*
X12802162Y-10851432D02*
X12792639Y-10889527D01*
X12792639Y-10889527D02*
X12783115Y-10908574D01*
X12783115Y-10908574D02*
X12773591Y-10918098D01*
X12773591Y-10918098D02*
X12754543Y-10927622D01*
X12754543Y-10927622D02*
X12735496Y-10927622D01*
X12735496Y-10927622D02*
X12716448Y-10918098D01*
X12716448Y-10918098D02*
X12706924Y-10908574D01*
X12706924Y-10908574D02*
X12697401Y-10889527D01*
X12697401Y-10889527D02*
X12687877Y-10851432D01*
X12687877Y-10851432D02*
X12687877Y-10803813D01*
X12687877Y-10803813D02*
X12697401Y-10765717D01*
X12697401Y-10765717D02*
X12706924Y-10746670D01*
X12706924Y-10746670D02*
X12716448Y-10737146D01*
X12716448Y-10737146D02*
X12735496Y-10727622D01*
X12887877Y-10908574D02*
X12897401Y-10918098D01*
X12897401Y-10918098D02*
X12887877Y-10927622D01*
X12887877Y-10927622D02*
X12878353Y-10918098D01*
X12878353Y-10918098D02*
X12887877Y-10908574D01*
X12887877Y-10908574D02*
X12887877Y-10927622D01*
X13021210Y-10727622D02*
X13040258Y-10727622D01*
X13040258Y-10727622D02*
X13059305Y-10737146D01*
X13059305Y-10737146D02*
X13068829Y-10746670D01*
X13068829Y-10746670D02*
X13078353Y-10765717D01*
X13078353Y-10765717D02*
X13087877Y-10803813D01*
X13087877Y-10803813D02*
X13087877Y-10851432D01*
X13087877Y-10851432D02*
X13078353Y-10889527D01*
X13078353Y-10889527D02*
X13068829Y-10908574D01*
X13068829Y-10908574D02*
X13059305Y-10918098D01*
X13059305Y-10918098D02*
X13040258Y-10927622D01*
X13040258Y-10927622D02*
X13021210Y-10927622D01*
X13021210Y-10927622D02*
X13002162Y-10918098D01*
X13002162Y-10918098D02*
X12992639Y-10908574D01*
X12992639Y-10908574D02*
X12983115Y-10889527D01*
X12983115Y-10889527D02*
X12973591Y-10851432D01*
X12973591Y-10851432D02*
X12973591Y-10803813D01*
X12973591Y-10803813D02*
X12983115Y-10765717D01*
X12983115Y-10765717D02*
X12992639Y-10746670D01*
X12992639Y-10746670D02*
X13002162Y-10737146D01*
X13002162Y-10737146D02*
X13021210Y-10727622D01*
X13154543Y-10727622D02*
X13278353Y-10727622D01*
X13278353Y-10727622D02*
X13211686Y-10803813D01*
X13211686Y-10803813D02*
X13240258Y-10803813D01*
X13240258Y-10803813D02*
X13259305Y-10813336D01*
X13259305Y-10813336D02*
X13268829Y-10822860D01*
X13268829Y-10822860D02*
X13278353Y-10841908D01*
X13278353Y-10841908D02*
X13278353Y-10889527D01*
X13278353Y-10889527D02*
X13268829Y-10908574D01*
X13268829Y-10908574D02*
X13259305Y-10918098D01*
X13259305Y-10918098D02*
X13240258Y-10927622D01*
X13240258Y-10927622D02*
X13183115Y-10927622D01*
X13183115Y-10927622D02*
X13164067Y-10918098D01*
X13164067Y-10918098D02*
X13154543Y-10908574D01*
X13459305Y-10727622D02*
X13364067Y-10727622D01*
X13364067Y-10727622D02*
X13354543Y-10822860D01*
X13354543Y-10822860D02*
X13364067Y-10813336D01*
X13364067Y-10813336D02*
X13383115Y-10803813D01*
X13383115Y-10803813D02*
X13430734Y-10803813D01*
X13430734Y-10803813D02*
X13449782Y-10813336D01*
X13449782Y-10813336D02*
X13459305Y-10822860D01*
X13459305Y-10822860D02*
X13468829Y-10841908D01*
X13468829Y-10841908D02*
X13468829Y-10889527D01*
X13468829Y-10889527D02*
X13459305Y-10908574D01*
X13459305Y-10908574D02*
X13449782Y-10918098D01*
X13449782Y-10918098D02*
X13430734Y-10927622D01*
X13430734Y-10927622D02*
X13383115Y-10927622D01*
X13383115Y-10927622D02*
X13364067Y-10918098D01*
X13364067Y-10918098D02*
X13354543Y-10908574D01*
X13640258Y-10794289D02*
X13640258Y-10927622D01*
X13592639Y-10718098D02*
X13545020Y-10860955D01*
X13545020Y-10860955D02*
X13668829Y-10860955D01*
X13735496Y-10727622D02*
X13735496Y-10765717D01*
X13811686Y-10727622D02*
X13811686Y-10765717D01*
X14106925Y-11003813D02*
X14097401Y-10994289D01*
X14097401Y-10994289D02*
X14078353Y-10965717D01*
X14078353Y-10965717D02*
X14068829Y-10946670D01*
X14068829Y-10946670D02*
X14059305Y-10918098D01*
X14059305Y-10918098D02*
X14049782Y-10870479D01*
X14049782Y-10870479D02*
X14049782Y-10832384D01*
X14049782Y-10832384D02*
X14059305Y-10784765D01*
X14059305Y-10784765D02*
X14068829Y-10756194D01*
X14068829Y-10756194D02*
X14078353Y-10737146D01*
X14078353Y-10737146D02*
X14097401Y-10708574D01*
X14097401Y-10708574D02*
X14106925Y-10699051D01*
X14173591Y-10746670D02*
X14183115Y-10737146D01*
X14183115Y-10737146D02*
X14202163Y-10727622D01*
X14202163Y-10727622D02*
X14249782Y-10727622D01*
X14249782Y-10727622D02*
X14268829Y-10737146D01*
X14268829Y-10737146D02*
X14278353Y-10746670D01*
X14278353Y-10746670D02*
X14287877Y-10765717D01*
X14287877Y-10765717D02*
X14287877Y-10784765D01*
X14287877Y-10784765D02*
X14278353Y-10813336D01*
X14278353Y-10813336D02*
X14164067Y-10927622D01*
X14164067Y-10927622D02*
X14287877Y-10927622D01*
X14525972Y-10927622D02*
X14525972Y-10727622D01*
X14611686Y-10927622D02*
X14611686Y-10822860D01*
X14611686Y-10822860D02*
X14602163Y-10803813D01*
X14602163Y-10803813D02*
X14583115Y-10794289D01*
X14583115Y-10794289D02*
X14554544Y-10794289D01*
X14554544Y-10794289D02*
X14535496Y-10803813D01*
X14535496Y-10803813D02*
X14525972Y-10813336D01*
X14735496Y-10927622D02*
X14716448Y-10918098D01*
X14716448Y-10918098D02*
X14706925Y-10908574D01*
X14706925Y-10908574D02*
X14697401Y-10889527D01*
X14697401Y-10889527D02*
X14697401Y-10832384D01*
X14697401Y-10832384D02*
X14706925Y-10813336D01*
X14706925Y-10813336D02*
X14716448Y-10803813D01*
X14716448Y-10803813D02*
X14735496Y-10794289D01*
X14735496Y-10794289D02*
X14764067Y-10794289D01*
X14764067Y-10794289D02*
X14783115Y-10803813D01*
X14783115Y-10803813D02*
X14792639Y-10813336D01*
X14792639Y-10813336D02*
X14802163Y-10832384D01*
X14802163Y-10832384D02*
X14802163Y-10889527D01*
X14802163Y-10889527D02*
X14792639Y-10908574D01*
X14792639Y-10908574D02*
X14783115Y-10918098D01*
X14783115Y-10918098D02*
X14764067Y-10927622D01*
X14764067Y-10927622D02*
X14735496Y-10927622D01*
X14916448Y-10927622D02*
X14897401Y-10918098D01*
X14897401Y-10918098D02*
X14887877Y-10899051D01*
X14887877Y-10899051D02*
X14887877Y-10727622D01*
X15068829Y-10918098D02*
X15049782Y-10927622D01*
X15049782Y-10927622D02*
X15011686Y-10927622D01*
X15011686Y-10927622D02*
X14992639Y-10918098D01*
X14992639Y-10918098D02*
X14983115Y-10899051D01*
X14983115Y-10899051D02*
X14983115Y-10822860D01*
X14983115Y-10822860D02*
X14992639Y-10803813D01*
X14992639Y-10803813D02*
X15011686Y-10794289D01*
X15011686Y-10794289D02*
X15049782Y-10794289D01*
X15049782Y-10794289D02*
X15068829Y-10803813D01*
X15068829Y-10803813D02*
X15078353Y-10822860D01*
X15078353Y-10822860D02*
X15078353Y-10841908D01*
X15078353Y-10841908D02*
X14983115Y-10860955D01*
X15154544Y-10918098D02*
X15173591Y-10927622D01*
X15173591Y-10927622D02*
X15211686Y-10927622D01*
X15211686Y-10927622D02*
X15230734Y-10918098D01*
X15230734Y-10918098D02*
X15240258Y-10899051D01*
X15240258Y-10899051D02*
X15240258Y-10889527D01*
X15240258Y-10889527D02*
X15230734Y-10870479D01*
X15230734Y-10870479D02*
X15211686Y-10860955D01*
X15211686Y-10860955D02*
X15183115Y-10860955D01*
X15183115Y-10860955D02*
X15164067Y-10851432D01*
X15164067Y-10851432D02*
X15154544Y-10832384D01*
X15154544Y-10832384D02*
X15154544Y-10822860D01*
X15154544Y-10822860D02*
X15164067Y-10803813D01*
X15164067Y-10803813D02*
X15183115Y-10794289D01*
X15183115Y-10794289D02*
X15211686Y-10794289D01*
X15211686Y-10794289D02*
X15230734Y-10803813D01*
X15306925Y-11003813D02*
X15316448Y-10994289D01*
X15316448Y-10994289D02*
X15335496Y-10965717D01*
X15335496Y-10965717D02*
X15345020Y-10946670D01*
X15345020Y-10946670D02*
X15354544Y-10918098D01*
X15354544Y-10918098D02*
X15364067Y-10870479D01*
X15364067Y-10870479D02*
X15364067Y-10832384D01*
X15364067Y-10832384D02*
X15354544Y-10784765D01*
X15354544Y-10784765D02*
X15345020Y-10756194D01*
X15345020Y-10756194D02*
X15335496Y-10737146D01*
X15335496Y-10737146D02*
X15316448Y-10708574D01*
X15316448Y-10708574D02*
X15306925Y-10699051D01*
M02*
