G04 #@! TF.GenerationSoftware,KiCad,Pcbnew,9.0.1*
G04 #@! TF.CreationDate,2025-06-26T00:20:29+05:30*
G04 #@! TF.ProjectId,solder,736f6c64-6572-42e6-9b69-6361645f7063,rev?*
G04 #@! TF.SameCoordinates,Original*
G04 #@! TF.FileFunction,Copper,L1,Top*
G04 #@! TF.FilePolarity,Positive*
%FSLAX46Y46*%
G04 Gerber Fmt 4.6, Leading zero omitted, Abs format (unit mm)*
G04 Created by KiCad (PCBNEW 9.0.1) date 2025-06-26 00:20:29*
%MOMM*%
%LPD*%
G01*
G04 APERTURE LIST*
G04 #@! TA.AperFunction,ComponentPad*
%ADD10C,1.600000*%
G04 #@! TD*
G04 #@! TA.AperFunction,ComponentPad*
%ADD11O,1.600000X1.600000*%
G04 #@! TD*
G04 #@! TA.AperFunction,ComponentPad*
%ADD12R,1.800000X1.800000*%
G04 #@! TD*
G04 #@! TA.AperFunction,ComponentPad*
%ADD13C,1.800000*%
G04 #@! TD*
G04 #@! TA.AperFunction,SMDPad,CuDef*
%ADD14R,1.270000X5.080000*%
G04 #@! TD*
G04 #@! TA.AperFunction,SMDPad,CuDef*
%ADD15C,17.800000*%
G04 #@! TD*
G04 #@! TA.AperFunction,Conductor*
%ADD16C,0.200000*%
G04 #@! TD*
G04 APERTURE END LIST*
D10*
G04 #@! TO.P,R1,1*
G04 #@! TO.N,Net-(D1-K)*
X162810000Y-117500000D03*
D11*
G04 #@! TO.P,R1,2*
G04 #@! TO.N,Net-(BT1--)*
X155190000Y-117500000D03*
G04 #@! TD*
D12*
G04 #@! TO.P,D1,1,K*
G04 #@! TO.N,Net-(D1-K)*
X162725000Y-111000000D03*
D13*
G04 #@! TO.P,D1,2,A*
G04 #@! TO.N,Net-(BT1-+)*
X165265000Y-111000000D03*
G04 #@! TD*
D12*
G04 #@! TO.P,D2,1,K*
G04 #@! TO.N,Net-(D2-K)*
X135460000Y-111000000D03*
D13*
G04 #@! TO.P,D2,2,A*
G04 #@! TO.N,Net-(BT1-+)*
X138000000Y-111000000D03*
G04 #@! TD*
D10*
G04 #@! TO.P,R2,1*
G04 #@! TO.N,Net-(D2-K)*
X140690000Y-117500000D03*
D11*
G04 #@! TO.P,R2,2*
G04 #@! TO.N,Net-(BT1--)*
X148310000Y-117500000D03*
G04 #@! TD*
D14*
G04 #@! TO.P,BT1,1,+*
G04 #@! TO.N,Net-(BT1-+)*
X140015000Y-100500000D03*
X161985000Y-100500000D03*
D15*
G04 #@! TO.P,BT1,2,-*
G04 #@! TO.N,Net-(BT1--)*
X151000000Y-100500000D03*
G04 #@! TD*
D16*
G04 #@! TO.N,Net-(BT1-+)*
X161985000Y-98472821D02*
X161985000Y-100500000D01*
X154811179Y-91299000D02*
X161985000Y-98472821D01*
X161985000Y-100500000D02*
X161985000Y-107720000D01*
X146476000Y-91299000D02*
X154811179Y-91299000D01*
X138000000Y-102515000D02*
X140015000Y-100500000D01*
X140015000Y-100500000D02*
X140015000Y-97760000D01*
X138000000Y-111000000D02*
X138000000Y-102515000D01*
X161985000Y-107720000D02*
X165265000Y-111000000D01*
X140015000Y-97760000D02*
X146476000Y-91299000D01*
G04 #@! TO.N,Net-(BT1--)*
X148310000Y-103190000D02*
X151000000Y-100500000D01*
X148310000Y-117500000D02*
X148310000Y-103190000D01*
X148310000Y-117500000D02*
X155099000Y-117500000D01*
G04 #@! TO.N,Net-(D1-K)*
X162000000Y-111000000D02*
X162725000Y-111000000D01*
X162810000Y-117500000D02*
X162810000Y-111085000D01*
X162810000Y-111085000D02*
X162725000Y-111000000D01*
G04 #@! TO.N,Net-(D2-K)*
X135460000Y-111000000D02*
X135460000Y-112270000D01*
X135460000Y-112270000D02*
X140690000Y-117500000D01*
G04 #@! TD*
M02*
