%TF.GenerationSoftware,KiCad,Pcbnew,9.0.1*%
%TF.CreationDate,2025-06-26T00:20:29+05:30*%
%TF.ProjectId,solder,736f6c64-6572-42e6-9b69-6361645f7063,rev?*%
%TF.SameCoordinates,Original*%
%TF.FileFunction,Drillmap*%
%TF.FilePolarity,Positive*%
%FSLAX45Y45*%
G04 Gerber Fmt 4.5, Leading zero omitted, Abs format (unit mm)*
G04 Created by KiCad (PCBNEW 9.0.1) date 2025-06-26 00:20:29*
%MOMM*%
%LPD*%
G01*
G04 APERTURE LIST*
%ADD10C,0.050000*%
%ADD11C,0.200000*%
G04 APERTURE END LIST*
D10*
X16950000Y-11300000D02*
X16750000Y-11800000D01*
X16500000Y-12150000D01*
X15750000Y-12350000D01*
X15200000Y-12450000D01*
X14500000Y-12450000D01*
X14050000Y-12400000D01*
X13750000Y-12250000D01*
X13350000Y-12000000D01*
X13000000Y-11550000D01*
X13450000Y-7950000D01*
X14300000Y-8650000D01*
X15600000Y-8700000D01*
X16250000Y-7950000D01*
X16950000Y-11300000D01*
D11*
X13258277Y-12763984D02*
X13258277Y-12563984D01*
X13258277Y-12563984D02*
X13305896Y-12563984D01*
X13305896Y-12563984D02*
X13334467Y-12573508D01*
X13334467Y-12573508D02*
X13353515Y-12592555D01*
X13353515Y-12592555D02*
X13363039Y-12611603D01*
X13363039Y-12611603D02*
X13372562Y-12649698D01*
X13372562Y-12649698D02*
X13372562Y-12678269D01*
X13372562Y-12678269D02*
X13363039Y-12716365D01*
X13363039Y-12716365D02*
X13353515Y-12735412D01*
X13353515Y-12735412D02*
X13334467Y-12754460D01*
X13334467Y-12754460D02*
X13305896Y-12763984D01*
X13305896Y-12763984D02*
X13258277Y-12763984D01*
X13458277Y-12763984D02*
X13458277Y-12630650D01*
X13458277Y-12668746D02*
X13467801Y-12649698D01*
X13467801Y-12649698D02*
X13477324Y-12640174D01*
X13477324Y-12640174D02*
X13496372Y-12630650D01*
X13496372Y-12630650D02*
X13515420Y-12630650D01*
X13582086Y-12763984D02*
X13582086Y-12630650D01*
X13582086Y-12563984D02*
X13572562Y-12573508D01*
X13572562Y-12573508D02*
X13582086Y-12583031D01*
X13582086Y-12583031D02*
X13591610Y-12573508D01*
X13591610Y-12573508D02*
X13582086Y-12563984D01*
X13582086Y-12563984D02*
X13582086Y-12583031D01*
X13705896Y-12763984D02*
X13686848Y-12754460D01*
X13686848Y-12754460D02*
X13677324Y-12735412D01*
X13677324Y-12735412D02*
X13677324Y-12563984D01*
X13810658Y-12763984D02*
X13791610Y-12754460D01*
X13791610Y-12754460D02*
X13782086Y-12735412D01*
X13782086Y-12735412D02*
X13782086Y-12563984D01*
X14039229Y-12763984D02*
X14039229Y-12563984D01*
X14039229Y-12563984D02*
X14105896Y-12706841D01*
X14105896Y-12706841D02*
X14172562Y-12563984D01*
X14172562Y-12563984D02*
X14172562Y-12763984D01*
X14353515Y-12763984D02*
X14353515Y-12659222D01*
X14353515Y-12659222D02*
X14343991Y-12640174D01*
X14343991Y-12640174D02*
X14324943Y-12630650D01*
X14324943Y-12630650D02*
X14286848Y-12630650D01*
X14286848Y-12630650D02*
X14267801Y-12640174D01*
X14353515Y-12754460D02*
X14334467Y-12763984D01*
X14334467Y-12763984D02*
X14286848Y-12763984D01*
X14286848Y-12763984D02*
X14267801Y-12754460D01*
X14267801Y-12754460D02*
X14258277Y-12735412D01*
X14258277Y-12735412D02*
X14258277Y-12716365D01*
X14258277Y-12716365D02*
X14267801Y-12697317D01*
X14267801Y-12697317D02*
X14286848Y-12687793D01*
X14286848Y-12687793D02*
X14334467Y-12687793D01*
X14334467Y-12687793D02*
X14353515Y-12678269D01*
X14448753Y-12630650D02*
X14448753Y-12830650D01*
X14448753Y-12640174D02*
X14467801Y-12630650D01*
X14467801Y-12630650D02*
X14505896Y-12630650D01*
X14505896Y-12630650D02*
X14524943Y-12640174D01*
X14524943Y-12640174D02*
X14534467Y-12649698D01*
X14534467Y-12649698D02*
X14543991Y-12668746D01*
X14543991Y-12668746D02*
X14543991Y-12725888D01*
X14543991Y-12725888D02*
X14534467Y-12744936D01*
X14534467Y-12744936D02*
X14524943Y-12754460D01*
X14524943Y-12754460D02*
X14505896Y-12763984D01*
X14505896Y-12763984D02*
X14467801Y-12763984D01*
X14467801Y-12763984D02*
X14448753Y-12754460D01*
X14629705Y-12744936D02*
X14639229Y-12754460D01*
X14639229Y-12754460D02*
X14629705Y-12763984D01*
X14629705Y-12763984D02*
X14620182Y-12754460D01*
X14620182Y-12754460D02*
X14629705Y-12744936D01*
X14629705Y-12744936D02*
X14629705Y-12763984D01*
X14629705Y-12640174D02*
X14639229Y-12649698D01*
X14639229Y-12649698D02*
X14629705Y-12659222D01*
X14629705Y-12659222D02*
X14620182Y-12649698D01*
X14620182Y-12649698D02*
X14629705Y-12640174D01*
X14629705Y-12640174D02*
X14629705Y-12659222D01*
M02*
