G04 #@! TF.GenerationSoftware,KiCad,Pcbnew,9.0.1*
G04 #@! TF.CreationDate,2025-06-30T22:23:46+05:30*
G04 #@! TF.ProjectId,solder,736f6c64-6572-42e6-9b69-6361645f7063,rev?*
G04 #@! TF.SameCoordinates,Original*
G04 #@! TF.FileFunction,Legend,Bot*
G04 #@! TF.FilePolarity,Positive*
%FSLAX46Y46*%
G04 Gerber Fmt 4.6, Leading zero omitted, Abs format (unit mm)*
G04 Created by KiCad (PCBNEW 9.0.1) date 2025-06-30 22:23:46*
%MOMM*%
%LPD*%
G01*
G04 APERTURE LIST*
G04 Aperture macros list*
%AMRoundRect*
0 Rectangle with rounded corners*
0 $1 Rounding radius*
0 $2 $3 $4 $5 $6 $7 $8 $9 X,Y pos of 4 corners*
0 Add a 4 corners polygon primitive as box body*
4,1,4,$2,$3,$4,$5,$6,$7,$8,$9,$2,$3,0*
0 Add four circle primitives for the rounded corners*
1,1,$1+$1,$2,$3*
1,1,$1+$1,$4,$5*
1,1,$1+$1,$6,$7*
1,1,$1+$1,$8,$9*
0 Add four rect primitives between the rounded corners*
20,1,$1+$1,$2,$3,$4,$5,0*
20,1,$1+$1,$4,$5,$6,$7,0*
20,1,$1+$1,$6,$7,$8,$9,0*
20,1,$1+$1,$8,$9,$2,$3,0*%
G04 Aperture macros list end*
%ADD10C,0.100000*%
%ADD11C,1.500000*%
%ADD12C,1.600000*%
%ADD13O,1.600000X1.600000*%
%ADD14R,1.100000X1.800000*%
%ADD15RoundRect,0.275000X0.275000X0.625000X-0.275000X0.625000X-0.275000X-0.625000X0.275000X-0.625000X0*%
%ADD16R,1.800000X1.800000*%
%ADD17C,1.800000*%
G04 APERTURE END LIST*
D10*
X111705752Y-64208646D02*
X111705752Y-64732455D01*
X111705752Y-64732455D02*
X112372419Y-64208646D01*
X112372419Y-64208646D02*
X112372419Y-64732455D01*
X111705752Y-65018170D02*
X111705752Y-65541979D01*
X111705752Y-65541979D02*
X112372419Y-65018170D01*
X112372419Y-65018170D02*
X112372419Y-65541979D01*
X111705752Y-65827694D02*
X111705752Y-66351503D01*
X111705752Y-66351503D02*
X112372419Y-65827694D01*
X112372419Y-65827694D02*
X112372419Y-66351503D01*
X111705752Y-66637218D02*
X111705752Y-67161027D01*
X111705752Y-67161027D02*
X112372419Y-66637218D01*
X112372419Y-66637218D02*
X112372419Y-67161027D01*
X111705752Y-67446742D02*
X111705752Y-67970551D01*
X111705752Y-67970551D02*
X112372419Y-67446742D01*
X112372419Y-67446742D02*
X112372419Y-67970551D01*
X111705752Y-68256266D02*
X111705752Y-68780075D01*
X111705752Y-68780075D02*
X112372419Y-68256266D01*
X112372419Y-68256266D02*
X112372419Y-68780075D01*
X111705752Y-69065790D02*
X111705752Y-69589599D01*
X111705752Y-69589599D02*
X112372419Y-69065790D01*
X112372419Y-69065790D02*
X112372419Y-69589599D01*
X111705752Y-69875314D02*
X111705752Y-70399123D01*
X111705752Y-70399123D02*
X112372419Y-69875314D01*
X112372419Y-69875314D02*
X112372419Y-70399123D01*
X111705752Y-70684838D02*
X111705752Y-71208647D01*
X111705752Y-71208647D02*
X112372419Y-70684838D01*
X112372419Y-70684838D02*
X112372419Y-71208647D01*
X111705752Y-71494362D02*
X111705752Y-72018171D01*
X111705752Y-72018171D02*
X112372419Y-71494362D01*
X112372419Y-71494362D02*
X112372419Y-72018171D01*
X111705752Y-72303886D02*
X111705752Y-72827695D01*
X111705752Y-72827695D02*
X112372419Y-72303886D01*
X112372419Y-72303886D02*
X112372419Y-72827695D01*
X111705752Y-73113410D02*
X111705752Y-73637219D01*
X111705752Y-73637219D02*
X112372419Y-73113410D01*
X112372419Y-73113410D02*
X112372419Y-73637219D01*
X111705752Y-73922934D02*
X111705752Y-74446743D01*
X111705752Y-74446743D02*
X112372419Y-73922934D01*
X112372419Y-73922934D02*
X112372419Y-74446743D01*
X111705752Y-74732458D02*
X111705752Y-75256267D01*
X111705752Y-75256267D02*
X112372419Y-74732458D01*
X112372419Y-74732458D02*
X112372419Y-75256267D01*
%LPC*%
D11*
G04 #@! TO.C,R3*
X137350000Y-78750000D03*
X140750000Y-78750000D03*
G04 #@! TD*
D12*
G04 #@! TO.C,R2*
X119020000Y-81950000D03*
D13*
X126640000Y-81950000D03*
G04 #@! TD*
D12*
G04 #@! TO.C,R1*
X119020000Y-77900000D03*
D13*
X126640000Y-77900000D03*
G04 #@! TD*
D14*
G04 #@! TO.C,Q1*
X150270000Y-63330000D03*
D15*
X149000000Y-65400000D03*
X147730000Y-63330000D03*
G04 #@! TD*
D16*
G04 #@! TO.C,D1*
X130680000Y-79610000D03*
D17*
X133220000Y-79610000D03*
G04 #@! TD*
%LPD*%
M02*
