%TF.GenerationSoftware,KiCad,Pcbnew,9.0.1*%
%TF.CreationDate,2025-06-26T00:20:29+05:30*%
%TF.ProjectId,solder,736f6c64-6572-42e6-9b69-6361645f7063,rev?*%
%TF.SameCoordinates,Original*%
%TF.FileFunction,Drillmap*%
%TF.FilePolarity,Positive*%
%FSLAX45Y45*%
G04 Gerber Fmt 4.5, Leading zero omitted, Abs format (unit mm)*
G04 Created by KiCad (PCBNEW 9.0.1) date 2025-06-26 00:20:29*
%MOMM*%
%LPD*%
G01*
G04 APERTURE LIST*
%ADD10C,0.050000*%
%ADD11C,0.200000*%
%ADD12C,0.100000*%
G04 APERTURE END LIST*
D10*
X16950000Y-11300000D02*
X16750000Y-11800000D01*
X16500000Y-12150000D01*
X15750000Y-12350000D01*
X15200000Y-12450000D01*
X14500000Y-12450000D01*
X14050000Y-12400000D01*
X13750000Y-12250000D01*
X13350000Y-12000000D01*
X13000000Y-11550000D01*
X13450000Y-7950000D01*
X14300000Y-8650000D01*
X15600000Y-8700000D01*
X16250000Y-7950000D01*
X16950000Y-11300000D01*
D11*
D12*
X14029000Y-11710000D02*
X14109000Y-11790000D01*
X14109000Y-11710000D02*
X14029000Y-11790000D01*
X14791000Y-11710000D02*
X14871000Y-11790000D01*
X14871000Y-11710000D02*
X14791000Y-11790000D01*
X15479000Y-11710000D02*
X15559000Y-11790000D01*
X15559000Y-11710000D02*
X15479000Y-11790000D01*
X16241000Y-11710000D02*
X16321000Y-11790000D01*
X16321000Y-11710000D02*
X16241000Y-11790000D01*
X13591000Y-11100000D02*
G75*
G02*
X13501000Y-11100000I-45000J0D01*
G01*
X13501000Y-11100000D02*
G75*
G02*
X13591000Y-11100000I45000J0D01*
G01*
X13845000Y-11100000D02*
G75*
G02*
X13755000Y-11100000I-45000J0D01*
G01*
X13755000Y-11100000D02*
G75*
G02*
X13845000Y-11100000I45000J0D01*
G01*
X16317500Y-11100000D02*
G75*
G02*
X16227500Y-11100000I-45000J0D01*
G01*
X16227500Y-11100000D02*
G75*
G02*
X16317500Y-11100000I45000J0D01*
G01*
X16571500Y-11100000D02*
G75*
G02*
X16481500Y-11100000I-45000J0D01*
G01*
X16481500Y-11100000D02*
G75*
G02*
X16571500Y-11100000I45000J0D01*
G01*
D11*
X13258277Y-12763984D02*
X13258277Y-12563984D01*
X13258277Y-12563984D02*
X13305896Y-12563984D01*
X13305896Y-12563984D02*
X13334467Y-12573508D01*
X13334467Y-12573508D02*
X13353515Y-12592555D01*
X13353515Y-12592555D02*
X13363039Y-12611603D01*
X13363039Y-12611603D02*
X13372562Y-12649698D01*
X13372562Y-12649698D02*
X13372562Y-12678269D01*
X13372562Y-12678269D02*
X13363039Y-12716365D01*
X13363039Y-12716365D02*
X13353515Y-12735412D01*
X13353515Y-12735412D02*
X13334467Y-12754460D01*
X13334467Y-12754460D02*
X13305896Y-12763984D01*
X13305896Y-12763984D02*
X13258277Y-12763984D01*
X13458277Y-12763984D02*
X13458277Y-12630650D01*
X13458277Y-12668746D02*
X13467801Y-12649698D01*
X13467801Y-12649698D02*
X13477324Y-12640174D01*
X13477324Y-12640174D02*
X13496372Y-12630650D01*
X13496372Y-12630650D02*
X13515420Y-12630650D01*
X13582086Y-12763984D02*
X13582086Y-12630650D01*
X13582086Y-12563984D02*
X13572562Y-12573508D01*
X13572562Y-12573508D02*
X13582086Y-12583031D01*
X13582086Y-12583031D02*
X13591610Y-12573508D01*
X13591610Y-12573508D02*
X13582086Y-12563984D01*
X13582086Y-12563984D02*
X13582086Y-12583031D01*
X13705896Y-12763984D02*
X13686848Y-12754460D01*
X13686848Y-12754460D02*
X13677324Y-12735412D01*
X13677324Y-12735412D02*
X13677324Y-12563984D01*
X13810658Y-12763984D02*
X13791610Y-12754460D01*
X13791610Y-12754460D02*
X13782086Y-12735412D01*
X13782086Y-12735412D02*
X13782086Y-12563984D01*
X14039229Y-12763984D02*
X14039229Y-12563984D01*
X14039229Y-12563984D02*
X14105896Y-12706841D01*
X14105896Y-12706841D02*
X14172562Y-12563984D01*
X14172562Y-12563984D02*
X14172562Y-12763984D01*
X14353515Y-12763984D02*
X14353515Y-12659222D01*
X14353515Y-12659222D02*
X14343991Y-12640174D01*
X14343991Y-12640174D02*
X14324943Y-12630650D01*
X14324943Y-12630650D02*
X14286848Y-12630650D01*
X14286848Y-12630650D02*
X14267801Y-12640174D01*
X14353515Y-12754460D02*
X14334467Y-12763984D01*
X14334467Y-12763984D02*
X14286848Y-12763984D01*
X14286848Y-12763984D02*
X14267801Y-12754460D01*
X14267801Y-12754460D02*
X14258277Y-12735412D01*
X14258277Y-12735412D02*
X14258277Y-12716365D01*
X14258277Y-12716365D02*
X14267801Y-12697317D01*
X14267801Y-12697317D02*
X14286848Y-12687793D01*
X14286848Y-12687793D02*
X14334467Y-12687793D01*
X14334467Y-12687793D02*
X14353515Y-12678269D01*
X14448753Y-12630650D02*
X14448753Y-12830650D01*
X14448753Y-12640174D02*
X14467801Y-12630650D01*
X14467801Y-12630650D02*
X14505896Y-12630650D01*
X14505896Y-12630650D02*
X14524943Y-12640174D01*
X14524943Y-12640174D02*
X14534467Y-12649698D01*
X14534467Y-12649698D02*
X14543991Y-12668746D01*
X14543991Y-12668746D02*
X14543991Y-12725888D01*
X14543991Y-12725888D02*
X14534467Y-12744936D01*
X14534467Y-12744936D02*
X14524943Y-12754460D01*
X14524943Y-12754460D02*
X14505896Y-12763984D01*
X14505896Y-12763984D02*
X14467801Y-12763984D01*
X14467801Y-12763984D02*
X14448753Y-12754460D01*
X14629705Y-12744936D02*
X14639229Y-12754460D01*
X14639229Y-12754460D02*
X14629705Y-12763984D01*
X14629705Y-12763984D02*
X14620182Y-12754460D01*
X14620182Y-12754460D02*
X14629705Y-12744936D01*
X14629705Y-12744936D02*
X14629705Y-12763984D01*
X14629705Y-12640174D02*
X14639229Y-12649698D01*
X14639229Y-12649698D02*
X14629705Y-12659222D01*
X14629705Y-12659222D02*
X14620182Y-12649698D01*
X14620182Y-12649698D02*
X14629705Y-12640174D01*
X14629705Y-12640174D02*
X14629705Y-12659222D01*
D12*
X12917500Y-13052500D02*
X12997500Y-13132500D01*
X12997500Y-13052500D02*
X12917500Y-13132500D01*
D11*
X13296372Y-12983984D02*
X13315420Y-12983984D01*
X13315420Y-12983984D02*
X13334467Y-12993508D01*
X13334467Y-12993508D02*
X13343991Y-13003031D01*
X13343991Y-13003031D02*
X13353515Y-13022079D01*
X13353515Y-13022079D02*
X13363039Y-13060174D01*
X13363039Y-13060174D02*
X13363039Y-13107793D01*
X13363039Y-13107793D02*
X13353515Y-13145888D01*
X13353515Y-13145888D02*
X13343991Y-13164936D01*
X13343991Y-13164936D02*
X13334467Y-13174460D01*
X13334467Y-13174460D02*
X13315420Y-13183984D01*
X13315420Y-13183984D02*
X13296372Y-13183984D01*
X13296372Y-13183984D02*
X13277324Y-13174460D01*
X13277324Y-13174460D02*
X13267801Y-13164936D01*
X13267801Y-13164936D02*
X13258277Y-13145888D01*
X13258277Y-13145888D02*
X13248753Y-13107793D01*
X13248753Y-13107793D02*
X13248753Y-13060174D01*
X13248753Y-13060174D02*
X13258277Y-13022079D01*
X13258277Y-13022079D02*
X13267801Y-13003031D01*
X13267801Y-13003031D02*
X13277324Y-12993508D01*
X13277324Y-12993508D02*
X13296372Y-12983984D01*
X13448753Y-13164936D02*
X13458277Y-13174460D01*
X13458277Y-13174460D02*
X13448753Y-13183984D01*
X13448753Y-13183984D02*
X13439229Y-13174460D01*
X13439229Y-13174460D02*
X13448753Y-13164936D01*
X13448753Y-13164936D02*
X13448753Y-13183984D01*
X13572562Y-13069698D02*
X13553515Y-13060174D01*
X13553515Y-13060174D02*
X13543991Y-13050650D01*
X13543991Y-13050650D02*
X13534467Y-13031603D01*
X13534467Y-13031603D02*
X13534467Y-13022079D01*
X13534467Y-13022079D02*
X13543991Y-13003031D01*
X13543991Y-13003031D02*
X13553515Y-12993508D01*
X13553515Y-12993508D02*
X13572562Y-12983984D01*
X13572562Y-12983984D02*
X13610658Y-12983984D01*
X13610658Y-12983984D02*
X13629705Y-12993508D01*
X13629705Y-12993508D02*
X13639229Y-13003031D01*
X13639229Y-13003031D02*
X13648753Y-13022079D01*
X13648753Y-13022079D02*
X13648753Y-13031603D01*
X13648753Y-13031603D02*
X13639229Y-13050650D01*
X13639229Y-13050650D02*
X13629705Y-13060174D01*
X13629705Y-13060174D02*
X13610658Y-13069698D01*
X13610658Y-13069698D02*
X13572562Y-13069698D01*
X13572562Y-13069698D02*
X13553515Y-13079222D01*
X13553515Y-13079222D02*
X13543991Y-13088746D01*
X13543991Y-13088746D02*
X13534467Y-13107793D01*
X13534467Y-13107793D02*
X13534467Y-13145888D01*
X13534467Y-13145888D02*
X13543991Y-13164936D01*
X13543991Y-13164936D02*
X13553515Y-13174460D01*
X13553515Y-13174460D02*
X13572562Y-13183984D01*
X13572562Y-13183984D02*
X13610658Y-13183984D01*
X13610658Y-13183984D02*
X13629705Y-13174460D01*
X13629705Y-13174460D02*
X13639229Y-13164936D01*
X13639229Y-13164936D02*
X13648753Y-13145888D01*
X13648753Y-13145888D02*
X13648753Y-13107793D01*
X13648753Y-13107793D02*
X13639229Y-13088746D01*
X13639229Y-13088746D02*
X13629705Y-13079222D01*
X13629705Y-13079222D02*
X13610658Y-13069698D01*
X13772562Y-12983984D02*
X13791610Y-12983984D01*
X13791610Y-12983984D02*
X13810658Y-12993508D01*
X13810658Y-12993508D02*
X13820182Y-13003031D01*
X13820182Y-13003031D02*
X13829705Y-13022079D01*
X13829705Y-13022079D02*
X13839229Y-13060174D01*
X13839229Y-13060174D02*
X13839229Y-13107793D01*
X13839229Y-13107793D02*
X13829705Y-13145888D01*
X13829705Y-13145888D02*
X13820182Y-13164936D01*
X13820182Y-13164936D02*
X13810658Y-13174460D01*
X13810658Y-13174460D02*
X13791610Y-13183984D01*
X13791610Y-13183984D02*
X13772562Y-13183984D01*
X13772562Y-13183984D02*
X13753515Y-13174460D01*
X13753515Y-13174460D02*
X13743991Y-13164936D01*
X13743991Y-13164936D02*
X13734467Y-13145888D01*
X13734467Y-13145888D02*
X13724943Y-13107793D01*
X13724943Y-13107793D02*
X13724943Y-13060174D01*
X13724943Y-13060174D02*
X13734467Y-13022079D01*
X13734467Y-13022079D02*
X13743991Y-13003031D01*
X13743991Y-13003031D02*
X13753515Y-12993508D01*
X13753515Y-12993508D02*
X13772562Y-12983984D01*
X13963039Y-12983984D02*
X13982086Y-12983984D01*
X13982086Y-12983984D02*
X14001134Y-12993508D01*
X14001134Y-12993508D02*
X14010658Y-13003031D01*
X14010658Y-13003031D02*
X14020182Y-13022079D01*
X14020182Y-13022079D02*
X14029705Y-13060174D01*
X14029705Y-13060174D02*
X14029705Y-13107793D01*
X14029705Y-13107793D02*
X14020182Y-13145888D01*
X14020182Y-13145888D02*
X14010658Y-13164936D01*
X14010658Y-13164936D02*
X14001134Y-13174460D01*
X14001134Y-13174460D02*
X13982086Y-13183984D01*
X13982086Y-13183984D02*
X13963039Y-13183984D01*
X13963039Y-13183984D02*
X13943991Y-13174460D01*
X13943991Y-13174460D02*
X13934467Y-13164936D01*
X13934467Y-13164936D02*
X13924943Y-13145888D01*
X13924943Y-13145888D02*
X13915420Y-13107793D01*
X13915420Y-13107793D02*
X13915420Y-13060174D01*
X13915420Y-13060174D02*
X13924943Y-13022079D01*
X13924943Y-13022079D02*
X13934467Y-13003031D01*
X13934467Y-13003031D02*
X13943991Y-12993508D01*
X13943991Y-12993508D02*
X13963039Y-12983984D01*
X14115420Y-13183984D02*
X14115420Y-13050650D01*
X14115420Y-13069698D02*
X14124943Y-13060174D01*
X14124943Y-13060174D02*
X14143991Y-13050650D01*
X14143991Y-13050650D02*
X14172563Y-13050650D01*
X14172563Y-13050650D02*
X14191610Y-13060174D01*
X14191610Y-13060174D02*
X14201134Y-13079222D01*
X14201134Y-13079222D02*
X14201134Y-13183984D01*
X14201134Y-13079222D02*
X14210658Y-13060174D01*
X14210658Y-13060174D02*
X14229705Y-13050650D01*
X14229705Y-13050650D02*
X14258277Y-13050650D01*
X14258277Y-13050650D02*
X14277324Y-13060174D01*
X14277324Y-13060174D02*
X14286848Y-13079222D01*
X14286848Y-13079222D02*
X14286848Y-13183984D01*
X14382086Y-13183984D02*
X14382086Y-13050650D01*
X14382086Y-13069698D02*
X14391610Y-13060174D01*
X14391610Y-13060174D02*
X14410658Y-13050650D01*
X14410658Y-13050650D02*
X14439229Y-13050650D01*
X14439229Y-13050650D02*
X14458277Y-13060174D01*
X14458277Y-13060174D02*
X14467801Y-13079222D01*
X14467801Y-13079222D02*
X14467801Y-13183984D01*
X14467801Y-13079222D02*
X14477324Y-13060174D01*
X14477324Y-13060174D02*
X14496372Y-13050650D01*
X14496372Y-13050650D02*
X14524943Y-13050650D01*
X14524943Y-13050650D02*
X14543991Y-13060174D01*
X14543991Y-13060174D02*
X14553515Y-13079222D01*
X14553515Y-13079222D02*
X14553515Y-13183984D01*
X14943991Y-12974460D02*
X14772563Y-13231603D01*
X15201134Y-12983984D02*
X15220182Y-12983984D01*
X15220182Y-12983984D02*
X15239229Y-12993508D01*
X15239229Y-12993508D02*
X15248753Y-13003031D01*
X15248753Y-13003031D02*
X15258277Y-13022079D01*
X15258277Y-13022079D02*
X15267801Y-13060174D01*
X15267801Y-13060174D02*
X15267801Y-13107793D01*
X15267801Y-13107793D02*
X15258277Y-13145888D01*
X15258277Y-13145888D02*
X15248753Y-13164936D01*
X15248753Y-13164936D02*
X15239229Y-13174460D01*
X15239229Y-13174460D02*
X15220182Y-13183984D01*
X15220182Y-13183984D02*
X15201134Y-13183984D01*
X15201134Y-13183984D02*
X15182086Y-13174460D01*
X15182086Y-13174460D02*
X15172563Y-13164936D01*
X15172563Y-13164936D02*
X15163039Y-13145888D01*
X15163039Y-13145888D02*
X15153515Y-13107793D01*
X15153515Y-13107793D02*
X15153515Y-13060174D01*
X15153515Y-13060174D02*
X15163039Y-13022079D01*
X15163039Y-13022079D02*
X15172563Y-13003031D01*
X15172563Y-13003031D02*
X15182086Y-12993508D01*
X15182086Y-12993508D02*
X15201134Y-12983984D01*
X15353515Y-13164936D02*
X15363039Y-13174460D01*
X15363039Y-13174460D02*
X15353515Y-13183984D01*
X15353515Y-13183984D02*
X15343991Y-13174460D01*
X15343991Y-13174460D02*
X15353515Y-13164936D01*
X15353515Y-13164936D02*
X15353515Y-13183984D01*
X15486848Y-12983984D02*
X15505896Y-12983984D01*
X15505896Y-12983984D02*
X15524944Y-12993508D01*
X15524944Y-12993508D02*
X15534467Y-13003031D01*
X15534467Y-13003031D02*
X15543991Y-13022079D01*
X15543991Y-13022079D02*
X15553515Y-13060174D01*
X15553515Y-13060174D02*
X15553515Y-13107793D01*
X15553515Y-13107793D02*
X15543991Y-13145888D01*
X15543991Y-13145888D02*
X15534467Y-13164936D01*
X15534467Y-13164936D02*
X15524944Y-13174460D01*
X15524944Y-13174460D02*
X15505896Y-13183984D01*
X15505896Y-13183984D02*
X15486848Y-13183984D01*
X15486848Y-13183984D02*
X15467801Y-13174460D01*
X15467801Y-13174460D02*
X15458277Y-13164936D01*
X15458277Y-13164936D02*
X15448753Y-13145888D01*
X15448753Y-13145888D02*
X15439229Y-13107793D01*
X15439229Y-13107793D02*
X15439229Y-13060174D01*
X15439229Y-13060174D02*
X15448753Y-13022079D01*
X15448753Y-13022079D02*
X15458277Y-13003031D01*
X15458277Y-13003031D02*
X15467801Y-12993508D01*
X15467801Y-12993508D02*
X15486848Y-12983984D01*
X15620182Y-12983984D02*
X15743991Y-12983984D01*
X15743991Y-12983984D02*
X15677325Y-13060174D01*
X15677325Y-13060174D02*
X15705896Y-13060174D01*
X15705896Y-13060174D02*
X15724944Y-13069698D01*
X15724944Y-13069698D02*
X15734467Y-13079222D01*
X15734467Y-13079222D02*
X15743991Y-13098269D01*
X15743991Y-13098269D02*
X15743991Y-13145888D01*
X15743991Y-13145888D02*
X15734467Y-13164936D01*
X15734467Y-13164936D02*
X15724944Y-13174460D01*
X15724944Y-13174460D02*
X15705896Y-13183984D01*
X15705896Y-13183984D02*
X15648753Y-13183984D01*
X15648753Y-13183984D02*
X15629706Y-13174460D01*
X15629706Y-13174460D02*
X15620182Y-13164936D01*
X15934467Y-13183984D02*
X15820182Y-13183984D01*
X15877325Y-13183984D02*
X15877325Y-12983984D01*
X15877325Y-12983984D02*
X15858277Y-13012555D01*
X15858277Y-13012555D02*
X15839229Y-13031603D01*
X15839229Y-13031603D02*
X15820182Y-13041127D01*
X16115420Y-12983984D02*
X16020182Y-12983984D01*
X16020182Y-12983984D02*
X16010658Y-13079222D01*
X16010658Y-13079222D02*
X16020182Y-13069698D01*
X16020182Y-13069698D02*
X16039229Y-13060174D01*
X16039229Y-13060174D02*
X16086848Y-13060174D01*
X16086848Y-13060174D02*
X16105896Y-13069698D01*
X16105896Y-13069698D02*
X16115420Y-13079222D01*
X16115420Y-13079222D02*
X16124944Y-13098269D01*
X16124944Y-13098269D02*
X16124944Y-13145888D01*
X16124944Y-13145888D02*
X16115420Y-13164936D01*
X16115420Y-13164936D02*
X16105896Y-13174460D01*
X16105896Y-13174460D02*
X16086848Y-13183984D01*
X16086848Y-13183984D02*
X16039229Y-13183984D01*
X16039229Y-13183984D02*
X16020182Y-13174460D01*
X16020182Y-13174460D02*
X16010658Y-13164936D01*
X16201134Y-12983984D02*
X16201134Y-13022079D01*
X16277325Y-12983984D02*
X16277325Y-13022079D01*
X16572563Y-13260174D02*
X16563039Y-13250650D01*
X16563039Y-13250650D02*
X16543991Y-13222079D01*
X16543991Y-13222079D02*
X16534468Y-13203031D01*
X16534468Y-13203031D02*
X16524944Y-13174460D01*
X16524944Y-13174460D02*
X16515420Y-13126841D01*
X16515420Y-13126841D02*
X16515420Y-13088746D01*
X16515420Y-13088746D02*
X16524944Y-13041127D01*
X16524944Y-13041127D02*
X16534468Y-13012555D01*
X16534468Y-13012555D02*
X16543991Y-12993508D01*
X16543991Y-12993508D02*
X16563039Y-12964936D01*
X16563039Y-12964936D02*
X16572563Y-12955412D01*
X16734468Y-13050650D02*
X16734468Y-13183984D01*
X16686848Y-12974460D02*
X16639229Y-13117317D01*
X16639229Y-13117317D02*
X16763039Y-13117317D01*
X16991611Y-13183984D02*
X16991611Y-12983984D01*
X17077325Y-13183984D02*
X17077325Y-13079222D01*
X17077325Y-13079222D02*
X17067801Y-13060174D01*
X17067801Y-13060174D02*
X17048753Y-13050650D01*
X17048753Y-13050650D02*
X17020182Y-13050650D01*
X17020182Y-13050650D02*
X17001134Y-13060174D01*
X17001134Y-13060174D02*
X16991611Y-13069698D01*
X17201134Y-13183984D02*
X17182087Y-13174460D01*
X17182087Y-13174460D02*
X17172563Y-13164936D01*
X17172563Y-13164936D02*
X17163039Y-13145888D01*
X17163039Y-13145888D02*
X17163039Y-13088746D01*
X17163039Y-13088746D02*
X17172563Y-13069698D01*
X17172563Y-13069698D02*
X17182087Y-13060174D01*
X17182087Y-13060174D02*
X17201134Y-13050650D01*
X17201134Y-13050650D02*
X17229706Y-13050650D01*
X17229706Y-13050650D02*
X17248753Y-13060174D01*
X17248753Y-13060174D02*
X17258277Y-13069698D01*
X17258277Y-13069698D02*
X17267801Y-13088746D01*
X17267801Y-13088746D02*
X17267801Y-13145888D01*
X17267801Y-13145888D02*
X17258277Y-13164936D01*
X17258277Y-13164936D02*
X17248753Y-13174460D01*
X17248753Y-13174460D02*
X17229706Y-13183984D01*
X17229706Y-13183984D02*
X17201134Y-13183984D01*
X17382087Y-13183984D02*
X17363039Y-13174460D01*
X17363039Y-13174460D02*
X17353515Y-13155412D01*
X17353515Y-13155412D02*
X17353515Y-12983984D01*
X17534468Y-13174460D02*
X17515420Y-13183984D01*
X17515420Y-13183984D02*
X17477325Y-13183984D01*
X17477325Y-13183984D02*
X17458277Y-13174460D01*
X17458277Y-13174460D02*
X17448753Y-13155412D01*
X17448753Y-13155412D02*
X17448753Y-13079222D01*
X17448753Y-13079222D02*
X17458277Y-13060174D01*
X17458277Y-13060174D02*
X17477325Y-13050650D01*
X17477325Y-13050650D02*
X17515420Y-13050650D01*
X17515420Y-13050650D02*
X17534468Y-13060174D01*
X17534468Y-13060174D02*
X17543992Y-13079222D01*
X17543992Y-13079222D02*
X17543992Y-13098269D01*
X17543992Y-13098269D02*
X17448753Y-13117317D01*
X17620182Y-13174460D02*
X17639230Y-13183984D01*
X17639230Y-13183984D02*
X17677325Y-13183984D01*
X17677325Y-13183984D02*
X17696373Y-13174460D01*
X17696373Y-13174460D02*
X17705896Y-13155412D01*
X17705896Y-13155412D02*
X17705896Y-13145888D01*
X17705896Y-13145888D02*
X17696373Y-13126841D01*
X17696373Y-13126841D02*
X17677325Y-13117317D01*
X17677325Y-13117317D02*
X17648753Y-13117317D01*
X17648753Y-13117317D02*
X17629706Y-13107793D01*
X17629706Y-13107793D02*
X17620182Y-13088746D01*
X17620182Y-13088746D02*
X17620182Y-13079222D01*
X17620182Y-13079222D02*
X17629706Y-13060174D01*
X17629706Y-13060174D02*
X17648753Y-13050650D01*
X17648753Y-13050650D02*
X17677325Y-13050650D01*
X17677325Y-13050650D02*
X17696373Y-13060174D01*
X17772563Y-13260174D02*
X17782087Y-13250650D01*
X17782087Y-13250650D02*
X17801134Y-13222079D01*
X17801134Y-13222079D02*
X17810658Y-13203031D01*
X17810658Y-13203031D02*
X17820182Y-13174460D01*
X17820182Y-13174460D02*
X17829706Y-13126841D01*
X17829706Y-13126841D02*
X17829706Y-13088746D01*
X17829706Y-13088746D02*
X17820182Y-13041127D01*
X17820182Y-13041127D02*
X17810658Y-13012555D01*
X17810658Y-13012555D02*
X17801134Y-12993508D01*
X17801134Y-12993508D02*
X17782087Y-12964936D01*
X17782087Y-12964936D02*
X17772563Y-12955412D01*
D12*
X12997500Y-13356500D02*
G75*
G02*
X12907500Y-13356500I-45000J0D01*
G01*
X12907500Y-13356500D02*
G75*
G02*
X12997500Y-13356500I45000J0D01*
G01*
D11*
X13296372Y-13247984D02*
X13315420Y-13247984D01*
X13315420Y-13247984D02*
X13334467Y-13257508D01*
X13334467Y-13257508D02*
X13343991Y-13267031D01*
X13343991Y-13267031D02*
X13353515Y-13286079D01*
X13353515Y-13286079D02*
X13363039Y-13324174D01*
X13363039Y-13324174D02*
X13363039Y-13371793D01*
X13363039Y-13371793D02*
X13353515Y-13409888D01*
X13353515Y-13409888D02*
X13343991Y-13428936D01*
X13343991Y-13428936D02*
X13334467Y-13438460D01*
X13334467Y-13438460D02*
X13315420Y-13447984D01*
X13315420Y-13447984D02*
X13296372Y-13447984D01*
X13296372Y-13447984D02*
X13277324Y-13438460D01*
X13277324Y-13438460D02*
X13267801Y-13428936D01*
X13267801Y-13428936D02*
X13258277Y-13409888D01*
X13258277Y-13409888D02*
X13248753Y-13371793D01*
X13248753Y-13371793D02*
X13248753Y-13324174D01*
X13248753Y-13324174D02*
X13258277Y-13286079D01*
X13258277Y-13286079D02*
X13267801Y-13267031D01*
X13267801Y-13267031D02*
X13277324Y-13257508D01*
X13277324Y-13257508D02*
X13296372Y-13247984D01*
X13448753Y-13428936D02*
X13458277Y-13438460D01*
X13458277Y-13438460D02*
X13448753Y-13447984D01*
X13448753Y-13447984D02*
X13439229Y-13438460D01*
X13439229Y-13438460D02*
X13448753Y-13428936D01*
X13448753Y-13428936D02*
X13448753Y-13447984D01*
X13553515Y-13447984D02*
X13591610Y-13447984D01*
X13591610Y-13447984D02*
X13610658Y-13438460D01*
X13610658Y-13438460D02*
X13620182Y-13428936D01*
X13620182Y-13428936D02*
X13639229Y-13400365D01*
X13639229Y-13400365D02*
X13648753Y-13362269D01*
X13648753Y-13362269D02*
X13648753Y-13286079D01*
X13648753Y-13286079D02*
X13639229Y-13267031D01*
X13639229Y-13267031D02*
X13629705Y-13257508D01*
X13629705Y-13257508D02*
X13610658Y-13247984D01*
X13610658Y-13247984D02*
X13572562Y-13247984D01*
X13572562Y-13247984D02*
X13553515Y-13257508D01*
X13553515Y-13257508D02*
X13543991Y-13267031D01*
X13543991Y-13267031D02*
X13534467Y-13286079D01*
X13534467Y-13286079D02*
X13534467Y-13333698D01*
X13534467Y-13333698D02*
X13543991Y-13352746D01*
X13543991Y-13352746D02*
X13553515Y-13362269D01*
X13553515Y-13362269D02*
X13572562Y-13371793D01*
X13572562Y-13371793D02*
X13610658Y-13371793D01*
X13610658Y-13371793D02*
X13629705Y-13362269D01*
X13629705Y-13362269D02*
X13639229Y-13352746D01*
X13639229Y-13352746D02*
X13648753Y-13333698D01*
X13772562Y-13247984D02*
X13791610Y-13247984D01*
X13791610Y-13247984D02*
X13810658Y-13257508D01*
X13810658Y-13257508D02*
X13820182Y-13267031D01*
X13820182Y-13267031D02*
X13829705Y-13286079D01*
X13829705Y-13286079D02*
X13839229Y-13324174D01*
X13839229Y-13324174D02*
X13839229Y-13371793D01*
X13839229Y-13371793D02*
X13829705Y-13409888D01*
X13829705Y-13409888D02*
X13820182Y-13428936D01*
X13820182Y-13428936D02*
X13810658Y-13438460D01*
X13810658Y-13438460D02*
X13791610Y-13447984D01*
X13791610Y-13447984D02*
X13772562Y-13447984D01*
X13772562Y-13447984D02*
X13753515Y-13438460D01*
X13753515Y-13438460D02*
X13743991Y-13428936D01*
X13743991Y-13428936D02*
X13734467Y-13409888D01*
X13734467Y-13409888D02*
X13724943Y-13371793D01*
X13724943Y-13371793D02*
X13724943Y-13324174D01*
X13724943Y-13324174D02*
X13734467Y-13286079D01*
X13734467Y-13286079D02*
X13743991Y-13267031D01*
X13743991Y-13267031D02*
X13753515Y-13257508D01*
X13753515Y-13257508D02*
X13772562Y-13247984D01*
X13963039Y-13247984D02*
X13982086Y-13247984D01*
X13982086Y-13247984D02*
X14001134Y-13257508D01*
X14001134Y-13257508D02*
X14010658Y-13267031D01*
X14010658Y-13267031D02*
X14020182Y-13286079D01*
X14020182Y-13286079D02*
X14029705Y-13324174D01*
X14029705Y-13324174D02*
X14029705Y-13371793D01*
X14029705Y-13371793D02*
X14020182Y-13409888D01*
X14020182Y-13409888D02*
X14010658Y-13428936D01*
X14010658Y-13428936D02*
X14001134Y-13438460D01*
X14001134Y-13438460D02*
X13982086Y-13447984D01*
X13982086Y-13447984D02*
X13963039Y-13447984D01*
X13963039Y-13447984D02*
X13943991Y-13438460D01*
X13943991Y-13438460D02*
X13934467Y-13428936D01*
X13934467Y-13428936D02*
X13924943Y-13409888D01*
X13924943Y-13409888D02*
X13915420Y-13371793D01*
X13915420Y-13371793D02*
X13915420Y-13324174D01*
X13915420Y-13324174D02*
X13924943Y-13286079D01*
X13924943Y-13286079D02*
X13934467Y-13267031D01*
X13934467Y-13267031D02*
X13943991Y-13257508D01*
X13943991Y-13257508D02*
X13963039Y-13247984D01*
X14115420Y-13447984D02*
X14115420Y-13314650D01*
X14115420Y-13333698D02*
X14124943Y-13324174D01*
X14124943Y-13324174D02*
X14143991Y-13314650D01*
X14143991Y-13314650D02*
X14172563Y-13314650D01*
X14172563Y-13314650D02*
X14191610Y-13324174D01*
X14191610Y-13324174D02*
X14201134Y-13343222D01*
X14201134Y-13343222D02*
X14201134Y-13447984D01*
X14201134Y-13343222D02*
X14210658Y-13324174D01*
X14210658Y-13324174D02*
X14229705Y-13314650D01*
X14229705Y-13314650D02*
X14258277Y-13314650D01*
X14258277Y-13314650D02*
X14277324Y-13324174D01*
X14277324Y-13324174D02*
X14286848Y-13343222D01*
X14286848Y-13343222D02*
X14286848Y-13447984D01*
X14382086Y-13447984D02*
X14382086Y-13314650D01*
X14382086Y-13333698D02*
X14391610Y-13324174D01*
X14391610Y-13324174D02*
X14410658Y-13314650D01*
X14410658Y-13314650D02*
X14439229Y-13314650D01*
X14439229Y-13314650D02*
X14458277Y-13324174D01*
X14458277Y-13324174D02*
X14467801Y-13343222D01*
X14467801Y-13343222D02*
X14467801Y-13447984D01*
X14467801Y-13343222D02*
X14477324Y-13324174D01*
X14477324Y-13324174D02*
X14496372Y-13314650D01*
X14496372Y-13314650D02*
X14524943Y-13314650D01*
X14524943Y-13314650D02*
X14543991Y-13324174D01*
X14543991Y-13324174D02*
X14553515Y-13343222D01*
X14553515Y-13343222D02*
X14553515Y-13447984D01*
X14943991Y-13238460D02*
X14772563Y-13495603D01*
X15201134Y-13247984D02*
X15220182Y-13247984D01*
X15220182Y-13247984D02*
X15239229Y-13257508D01*
X15239229Y-13257508D02*
X15248753Y-13267031D01*
X15248753Y-13267031D02*
X15258277Y-13286079D01*
X15258277Y-13286079D02*
X15267801Y-13324174D01*
X15267801Y-13324174D02*
X15267801Y-13371793D01*
X15267801Y-13371793D02*
X15258277Y-13409888D01*
X15258277Y-13409888D02*
X15248753Y-13428936D01*
X15248753Y-13428936D02*
X15239229Y-13438460D01*
X15239229Y-13438460D02*
X15220182Y-13447984D01*
X15220182Y-13447984D02*
X15201134Y-13447984D01*
X15201134Y-13447984D02*
X15182086Y-13438460D01*
X15182086Y-13438460D02*
X15172563Y-13428936D01*
X15172563Y-13428936D02*
X15163039Y-13409888D01*
X15163039Y-13409888D02*
X15153515Y-13371793D01*
X15153515Y-13371793D02*
X15153515Y-13324174D01*
X15153515Y-13324174D02*
X15163039Y-13286079D01*
X15163039Y-13286079D02*
X15172563Y-13267031D01*
X15172563Y-13267031D02*
X15182086Y-13257508D01*
X15182086Y-13257508D02*
X15201134Y-13247984D01*
X15353515Y-13428936D02*
X15363039Y-13438460D01*
X15363039Y-13438460D02*
X15353515Y-13447984D01*
X15353515Y-13447984D02*
X15343991Y-13438460D01*
X15343991Y-13438460D02*
X15353515Y-13428936D01*
X15353515Y-13428936D02*
X15353515Y-13447984D01*
X15486848Y-13247984D02*
X15505896Y-13247984D01*
X15505896Y-13247984D02*
X15524944Y-13257508D01*
X15524944Y-13257508D02*
X15534467Y-13267031D01*
X15534467Y-13267031D02*
X15543991Y-13286079D01*
X15543991Y-13286079D02*
X15553515Y-13324174D01*
X15553515Y-13324174D02*
X15553515Y-13371793D01*
X15553515Y-13371793D02*
X15543991Y-13409888D01*
X15543991Y-13409888D02*
X15534467Y-13428936D01*
X15534467Y-13428936D02*
X15524944Y-13438460D01*
X15524944Y-13438460D02*
X15505896Y-13447984D01*
X15505896Y-13447984D02*
X15486848Y-13447984D01*
X15486848Y-13447984D02*
X15467801Y-13438460D01*
X15467801Y-13438460D02*
X15458277Y-13428936D01*
X15458277Y-13428936D02*
X15448753Y-13409888D01*
X15448753Y-13409888D02*
X15439229Y-13371793D01*
X15439229Y-13371793D02*
X15439229Y-13324174D01*
X15439229Y-13324174D02*
X15448753Y-13286079D01*
X15448753Y-13286079D02*
X15458277Y-13267031D01*
X15458277Y-13267031D02*
X15467801Y-13257508D01*
X15467801Y-13257508D02*
X15486848Y-13247984D01*
X15620182Y-13247984D02*
X15743991Y-13247984D01*
X15743991Y-13247984D02*
X15677325Y-13324174D01*
X15677325Y-13324174D02*
X15705896Y-13324174D01*
X15705896Y-13324174D02*
X15724944Y-13333698D01*
X15724944Y-13333698D02*
X15734467Y-13343222D01*
X15734467Y-13343222D02*
X15743991Y-13362269D01*
X15743991Y-13362269D02*
X15743991Y-13409888D01*
X15743991Y-13409888D02*
X15734467Y-13428936D01*
X15734467Y-13428936D02*
X15724944Y-13438460D01*
X15724944Y-13438460D02*
X15705896Y-13447984D01*
X15705896Y-13447984D02*
X15648753Y-13447984D01*
X15648753Y-13447984D02*
X15629706Y-13438460D01*
X15629706Y-13438460D02*
X15620182Y-13428936D01*
X15924944Y-13247984D02*
X15829706Y-13247984D01*
X15829706Y-13247984D02*
X15820182Y-13343222D01*
X15820182Y-13343222D02*
X15829706Y-13333698D01*
X15829706Y-13333698D02*
X15848753Y-13324174D01*
X15848753Y-13324174D02*
X15896372Y-13324174D01*
X15896372Y-13324174D02*
X15915420Y-13333698D01*
X15915420Y-13333698D02*
X15924944Y-13343222D01*
X15924944Y-13343222D02*
X15934467Y-13362269D01*
X15934467Y-13362269D02*
X15934467Y-13409888D01*
X15934467Y-13409888D02*
X15924944Y-13428936D01*
X15924944Y-13428936D02*
X15915420Y-13438460D01*
X15915420Y-13438460D02*
X15896372Y-13447984D01*
X15896372Y-13447984D02*
X15848753Y-13447984D01*
X15848753Y-13447984D02*
X15829706Y-13438460D01*
X15829706Y-13438460D02*
X15820182Y-13428936D01*
X16105896Y-13314650D02*
X16105896Y-13447984D01*
X16058277Y-13238460D02*
X16010658Y-13381317D01*
X16010658Y-13381317D02*
X16134467Y-13381317D01*
X16201134Y-13247984D02*
X16201134Y-13286079D01*
X16277325Y-13247984D02*
X16277325Y-13286079D01*
X16572563Y-13524174D02*
X16563039Y-13514650D01*
X16563039Y-13514650D02*
X16543991Y-13486079D01*
X16543991Y-13486079D02*
X16534468Y-13467031D01*
X16534468Y-13467031D02*
X16524944Y-13438460D01*
X16524944Y-13438460D02*
X16515420Y-13390841D01*
X16515420Y-13390841D02*
X16515420Y-13352746D01*
X16515420Y-13352746D02*
X16524944Y-13305127D01*
X16524944Y-13305127D02*
X16534468Y-13276555D01*
X16534468Y-13276555D02*
X16543991Y-13257508D01*
X16543991Y-13257508D02*
X16563039Y-13228936D01*
X16563039Y-13228936D02*
X16572563Y-13219412D01*
X16734468Y-13314650D02*
X16734468Y-13447984D01*
X16686848Y-13238460D02*
X16639229Y-13381317D01*
X16639229Y-13381317D02*
X16763039Y-13381317D01*
X16991611Y-13447984D02*
X16991611Y-13247984D01*
X17077325Y-13447984D02*
X17077325Y-13343222D01*
X17077325Y-13343222D02*
X17067801Y-13324174D01*
X17067801Y-13324174D02*
X17048753Y-13314650D01*
X17048753Y-13314650D02*
X17020182Y-13314650D01*
X17020182Y-13314650D02*
X17001134Y-13324174D01*
X17001134Y-13324174D02*
X16991611Y-13333698D01*
X17201134Y-13447984D02*
X17182087Y-13438460D01*
X17182087Y-13438460D02*
X17172563Y-13428936D01*
X17172563Y-13428936D02*
X17163039Y-13409888D01*
X17163039Y-13409888D02*
X17163039Y-13352746D01*
X17163039Y-13352746D02*
X17172563Y-13333698D01*
X17172563Y-13333698D02*
X17182087Y-13324174D01*
X17182087Y-13324174D02*
X17201134Y-13314650D01*
X17201134Y-13314650D02*
X17229706Y-13314650D01*
X17229706Y-13314650D02*
X17248753Y-13324174D01*
X17248753Y-13324174D02*
X17258277Y-13333698D01*
X17258277Y-13333698D02*
X17267801Y-13352746D01*
X17267801Y-13352746D02*
X17267801Y-13409888D01*
X17267801Y-13409888D02*
X17258277Y-13428936D01*
X17258277Y-13428936D02*
X17248753Y-13438460D01*
X17248753Y-13438460D02*
X17229706Y-13447984D01*
X17229706Y-13447984D02*
X17201134Y-13447984D01*
X17382087Y-13447984D02*
X17363039Y-13438460D01*
X17363039Y-13438460D02*
X17353515Y-13419412D01*
X17353515Y-13419412D02*
X17353515Y-13247984D01*
X17534468Y-13438460D02*
X17515420Y-13447984D01*
X17515420Y-13447984D02*
X17477325Y-13447984D01*
X17477325Y-13447984D02*
X17458277Y-13438460D01*
X17458277Y-13438460D02*
X17448753Y-13419412D01*
X17448753Y-13419412D02*
X17448753Y-13343222D01*
X17448753Y-13343222D02*
X17458277Y-13324174D01*
X17458277Y-13324174D02*
X17477325Y-13314650D01*
X17477325Y-13314650D02*
X17515420Y-13314650D01*
X17515420Y-13314650D02*
X17534468Y-13324174D01*
X17534468Y-13324174D02*
X17543992Y-13343222D01*
X17543992Y-13343222D02*
X17543992Y-13362269D01*
X17543992Y-13362269D02*
X17448753Y-13381317D01*
X17620182Y-13438460D02*
X17639230Y-13447984D01*
X17639230Y-13447984D02*
X17677325Y-13447984D01*
X17677325Y-13447984D02*
X17696373Y-13438460D01*
X17696373Y-13438460D02*
X17705896Y-13419412D01*
X17705896Y-13419412D02*
X17705896Y-13409888D01*
X17705896Y-13409888D02*
X17696373Y-13390841D01*
X17696373Y-13390841D02*
X17677325Y-13381317D01*
X17677325Y-13381317D02*
X17648753Y-13381317D01*
X17648753Y-13381317D02*
X17629706Y-13371793D01*
X17629706Y-13371793D02*
X17620182Y-13352746D01*
X17620182Y-13352746D02*
X17620182Y-13343222D01*
X17620182Y-13343222D02*
X17629706Y-13324174D01*
X17629706Y-13324174D02*
X17648753Y-13314650D01*
X17648753Y-13314650D02*
X17677325Y-13314650D01*
X17677325Y-13314650D02*
X17696373Y-13324174D01*
X17772563Y-13524174D02*
X17782087Y-13514650D01*
X17782087Y-13514650D02*
X17801134Y-13486079D01*
X17801134Y-13486079D02*
X17810658Y-13467031D01*
X17810658Y-13467031D02*
X17820182Y-13438460D01*
X17820182Y-13438460D02*
X17829706Y-13390841D01*
X17829706Y-13390841D02*
X17829706Y-13352746D01*
X17829706Y-13352746D02*
X17820182Y-13305127D01*
X17820182Y-13305127D02*
X17810658Y-13276555D01*
X17810658Y-13276555D02*
X17801134Y-13257508D01*
X17801134Y-13257508D02*
X17782087Y-13228936D01*
X17782087Y-13228936D02*
X17772563Y-13219412D01*
M02*
